<svg width="40" height="40" viewBox="0 0 40 40" fill="none" xmlns="http://www.w3.org/2000/svg">
<rect width="40" height="40" rx="10" fill="#FFEAE1"/>
<path d="M30.7693 28.3648C30.917 28.2098 30.9999 27.9995 30.9999 27.7802C30.9999 27.561 30.917 27.3507 30.7693 27.1957C30.6216 27.0407 30.4213 26.9536 30.2124 26.9536H24.8574C24.6821 26.267 24.2958 25.6604 23.7585 25.2277C23.2213 24.7951 22.5631 24.5605 21.886 24.5605C21.2088 24.5605 20.5506 24.7951 20.0134 25.2277C19.4761 25.6604 19.0899 26.267 18.9145 26.9536H10.7875C10.5786 26.9536 10.3783 27.0407 10.2307 27.1957C10.083 27.3507 10 27.561 10 27.7802C10 27.9995 10.083 28.2098 10.2307 28.3648C10.3783 28.5198 10.5786 28.6069 10.7875 28.6069H18.9145C19.0899 29.2935 19.4761 29.9001 20.0134 30.3328C20.5506 30.7654 21.2088 30.9999 21.886 30.9999C22.5631 30.9999 23.2213 30.7654 23.7585 30.3328C24.2958 29.9001 24.6821 29.2935 24.8574 28.6069H30.2124C30.4213 28.6069 30.6216 28.5198 30.7693 28.3648Z" fill="#F8772F"/>
<path d="M30.7693 13.8042C30.917 13.6492 30.9999 13.4389 30.9999 13.2197C31.0013 13.1107 30.9819 13.0026 30.9429 12.9016C30.9038 12.8006 30.8458 12.7089 30.7724 12.6318C30.699 12.5548 30.6116 12.4939 30.5155 12.4529C30.4193 12.4119 30.3162 12.3915 30.2124 12.393H27.6399C27.4645 11.7065 27.0783 11.0998 26.541 10.6672C26.0038 10.2345 25.3456 10 24.6684 10C23.9913 10 23.3331 10.2345 22.7959 10.6672C22.2586 11.0998 21.8724 11.7065 21.697 12.393H10.7875C10.6841 12.393 10.5817 12.4144 10.4861 12.4559C10.3906 12.4975 10.3038 12.5584 10.2307 12.6351C10.1575 12.7119 10.0995 12.803 10.0599 12.9033C10.0204 13.0036 10 13.1111 10 13.2197C10 13.3283 10.0204 13.4358 10.0599 13.536C10.0995 13.6363 10.1575 13.7275 10.2307 13.8042C10.3038 13.881 10.3906 13.9419 10.4861 13.9834C10.5817 14.025 10.6841 14.0464 10.7875 14.0464H21.697C21.8724 14.7329 22.2586 15.3396 22.7959 15.7722C23.3331 16.2049 23.9913 16.4394 24.6684 16.4394C25.3456 16.4394 26.0038 16.2049 26.541 15.7722C27.0783 15.3396 27.4645 14.7329 27.6399 14.0464H30.2124C30.4213 14.0464 30.6216 13.9593 30.7693 13.8042Z" fill="#F8772F"/>
<path d="M30.9429 20.8126C30.9819 20.7116 31.0013 20.6034 30.9999 20.4945C30.9999 20.2752 30.917 20.0649 30.7693 19.9099C30.6216 19.7549 30.4213 19.6678 30.2124 19.6678H17.9275C17.7521 18.9812 17.3658 18.3746 16.8286 17.9419C16.2913 17.5093 15.6331 17.2748 14.956 17.2748C14.2789 17.2748 13.6206 17.5093 13.0834 17.9419C12.5462 18.3746 12.1599 18.9812 11.9845 19.6678H10.7875C10.5786 19.6678 10.3783 19.7549 10.2307 19.9099C10.083 20.0649 10 20.2752 10 20.4945C10 20.7137 10.083 20.924 10.2307 21.079C10.3783 21.234 10.5786 21.3211 10.7875 21.3211H11.9845C12.1599 22.0077 12.5462 22.6143 13.0834 23.047C13.6206 23.4796 14.2789 23.7141 14.956 23.7141C15.6331 23.7141 16.2913 23.4796 16.8286 23.047C17.3658 22.6143 17.7521 22.0077 17.9275 21.3211H30.2124C30.3162 21.3226 30.4193 21.3022 30.5155 21.2612C30.6116 21.2202 30.699 21.1594 30.7724 21.0823C30.8458 21.0052 30.9038 20.9135 30.9429 20.8126Z" fill="#F8772F"/>
</svg>
