<svg width="185" height="121" viewBox="0 0 185 121" fill="none" xmlns="http://www.w3.org/2000/svg">
<g opacity="0.8">
<path d="M181.786 28.5284L178.893 42.5151L177.031 40.7015L173.863 42.9586L171.442 39.9561L166.012 43.8971L161.372 36.1509L156.196 39.1776L154.143 36.3531L147.571 40.0497L145.594 35.822L150.201 13.549L174.9 18.6397L181.786 28.5284Z" fill="#EBEBEB"/>
<path d="M174.9 18.6398L181.786 28.5285L173.219 26.7632L174.9 18.6398Z" fill="#DBDBDB"/>
<path d="M178.277 45.3094L174.035 65.8291L140.766 58.9731L144.977 38.6193L146.955 42.844L153.53 39.1474L155.579 41.9719L160.758 38.9482L165.395 46.6944L170.828 42.7534L173.246 45.7529L176.417 43.4988L178.277 45.3094Z" fill="#EBEBEB"/>
<path d="M130.66 42.9043L96.7565 44.9986L94.063 1.55709L119.239 0L128.481 7.74016L130.66 42.9043Z" fill="#EBEBEB"/>
<path d="M119.239 0L128.481 7.74016L119.75 8.28031L119.239 0Z" fill="#DBDBDB"/>
<path d="M109.853 29.2316L109.719 28.2508C109.378 26.22 109.934 23.9477 111.703 21.5729C113.299 19.4606 114.163 17.9518 114.067 16.2378C113.958 14.3065 112.673 13.0874 110.282 13.1839C108.915 13.2548 107.603 13.7389 106.518 14.572L105.475 12.2394C106.684 11.2587 108.8 10.5345 110.811 10.4289C115.173 10.1875 117.295 12.7645 117.462 15.6403C117.607 18.2143 116.27 20.1486 114.572 22.4088C113.012 24.4698 112.501 26.1687 112.721 28.0909L112.815 29.0747L109.853 29.2316ZM109.314 34.5758C109.236 33.1756 110.128 32.1375 111.455 32.0651C112.782 31.9927 113.749 32.9221 113.828 34.3253C113.9 35.65 113.087 36.7183 111.684 36.7967C110.345 36.8721 109.378 35.9005 109.302 34.5758H109.314Z" fill="#DBDBDB"/>
<path d="M25.0492 21.8414L21.6392 20.2994L21.1646 21.3405C21.0945 21.4893 20.9851 21.6162 20.8482 21.7077C20.7114 21.7991 20.5521 21.8516 20.3876 21.8595C20.2002 21.8657 20.0134 21.8838 19.8284 21.9139C19.6659 21.9379 19.4999 21.9175 19.3482 21.8548C19.1965 21.7921 19.0646 21.6894 18.9668 21.5578L18.2987 20.6253L15.2544 22.8041L15.9225 23.7365C16.0155 23.8711 16.0702 24.0283 16.0808 24.1914C16.0914 24.3545 16.0576 24.5174 15.983 24.6629C15.8968 24.8288 15.8191 24.9991 15.7502 25.1729C15.6903 25.3261 15.5897 25.4602 15.4592 25.5607C15.3288 25.6612 15.1733 25.7243 15.0096 25.7432L13.8699 25.8549L14.2357 29.5756L15.3814 29.4609C15.5457 29.4478 15.7105 29.4796 15.8581 29.553C16.0056 29.6264 16.1303 29.7385 16.2188 29.8773C16.2672 29.9558 16.3186 30.0312 16.373 30.1067C16.4274 30.1821 16.4818 30.2545 16.5392 30.3269C16.6436 30.4537 16.7107 30.6067 16.7331 30.7692C16.7555 30.9317 16.7323 31.0972 16.6662 31.2473L16.1886 32.2974L19.6016 33.8425L20.0762 32.7954C20.147 32.6467 20.257 32.5201 20.3944 32.4292C20.5318 32.3383 20.6915 32.2865 20.8562 32.2793C21.0415 32.2717 21.2262 32.2536 21.4094 32.225C21.5719 32.2009 21.7378 32.2213 21.8896 32.2841C22.0413 32.3468 22.1731 32.4494 22.271 32.5811L22.9391 33.5135L25.9864 31.3348L25.3183 30.4024C25.2225 30.269 25.166 30.1116 25.1553 29.9478C25.1447 29.7841 25.1801 29.6206 25.2578 29.476C25.342 29.311 25.4177 29.1418 25.4845 28.969C25.5427 28.8146 25.6428 28.6795 25.7736 28.5787C25.9044 28.478 26.0608 28.4156 26.2252 28.3987L27.3709 28.284L27.0021 24.5633L25.8564 24.675C25.6931 24.6893 25.529 24.6582 25.3823 24.5853C25.2356 24.5123 25.1119 24.4003 25.025 24.2616C24.9736 24.1831 24.9222 24.1077 24.8678 24.0322C24.8134 23.9568 24.759 23.8813 24.7015 23.8119C24.5979 23.6837 24.5313 23.5296 24.509 23.3664C24.4866 23.2031 24.5093 23.0369 24.5746 22.8855L25.0492 21.8414ZM23.1144 25.2845C23.4679 25.777 23.6672 26.363 23.6871 26.9685C23.7069 27.574 23.5464 28.1717 23.2259 28.6862C22.9053 29.2006 22.4392 29.6086 21.8863 29.8586C21.3335 30.1086 20.7188 30.1893 20.12 30.0905C19.5212 29.9917 18.9652 29.7179 18.5223 29.3037C18.0794 28.8895 17.7695 28.3534 17.6319 27.7634C17.4942 27.1734 17.5349 26.5559 17.7488 25.9889C17.9628 25.422 18.3403 24.9311 18.8338 24.5784C19.4953 24.1055 20.3178 23.9143 21.1206 24.0467C21.9233 24.1791 22.6405 24.6244 23.1144 25.2845Z" fill="#EBEBEB"/>
<path d="M179.196 71.2095L176.922 72.5191L177.324 73.2132C177.384 73.3128 177.414 73.4275 177.411 73.5437C177.407 73.6598 177.37 73.7725 177.303 73.868C177.234 73.9766 177.167 74.0883 177.107 74.206C177.057 74.3101 176.979 74.3978 176.88 74.4587C176.782 74.5197 176.669 74.5514 176.553 74.55H175.755V77.1723H176.56C176.675 77.1709 176.788 77.2025 176.887 77.2635C176.985 77.3245 177.063 77.4122 177.113 77.5163C177.173 77.634 177.24 77.7456 177.309 77.8542C177.376 77.9498 177.413 78.0624 177.417 78.1785C177.42 78.2947 177.39 78.4095 177.33 78.5091L176.928 79.2031L179.202 80.5128L179.607 79.8157C179.665 79.7168 179.751 79.6362 179.853 79.5829C179.955 79.5296 180.069 79.5057 180.184 79.5139H180.571C180.686 79.5061 180.801 79.5301 180.903 79.5834C181.004 79.6367 181.09 79.7171 181.149 79.8157L181.554 80.5158L183.824 79.2061L183.422 78.5091C183.365 78.409 183.337 78.2949 183.341 78.1797C183.345 78.0646 183.382 77.9529 183.446 77.8573C183.516 77.7486 183.582 77.634 183.643 77.5193C183.692 77.4152 183.771 77.3275 183.869 77.2665C183.967 77.2055 184.08 77.1739 184.196 77.1753H185V74.553H184.19C184.074 74.5544 183.961 74.5227 183.863 74.4618C183.765 74.4008 183.686 74.3131 183.637 74.209C183.576 74.0943 183.51 73.9796 183.44 73.871C183.376 73.7754 183.339 73.6637 183.335 73.5485C183.331 73.4334 183.359 73.3193 183.416 73.2192L183.818 72.5221L181.548 71.2125L181.142 71.9005C181.084 71.9994 180.999 72.08 180.897 72.1333C180.795 72.1866 180.68 72.2105 180.565 72.2023H180.372H180.178C180.063 72.21 179.948 72.1859 179.845 72.1327C179.743 72.0795 179.657 71.9991 179.598 71.9005L179.196 71.2095ZM180.372 73.7141C180.798 73.7135 181.214 73.8391 181.569 74.0749C181.923 74.3108 182.199 74.6463 182.363 75.039C182.526 75.4317 182.569 75.864 182.486 76.281C182.403 76.6981 182.198 77.0812 181.897 77.3819C181.595 77.6825 181.212 77.8872 180.794 77.97C180.376 78.0528 179.943 78.01 179.55 77.847C179.156 77.684 178.82 77.4082 178.584 77.0544C178.347 76.7006 178.222 76.2848 178.222 75.8596C178.222 75.5776 178.277 75.2983 178.385 75.0376C178.493 74.777 178.651 74.5401 178.851 74.3405C179.05 74.141 179.287 73.9827 179.548 73.8747C179.809 73.7667 180.089 73.7111 180.372 73.7111V73.7141Z" fill="#EBEBEB"/>
<path d="M31.9479 10.6914L29.865 12.2847L30.3457 12.9214C30.4174 13.0121 30.4615 13.1215 30.4727 13.2365C30.484 13.3515 30.4619 13.4673 30.4092 13.5702C30.3513 13.6877 30.3008 13.8086 30.258 13.9323C30.2208 14.0413 30.1538 14.1377 30.0646 14.2108C29.9754 14.2838 29.8675 14.3305 29.7532 14.3457L28.9551 14.4483L29.2937 17.0465L30.0918 16.9439C30.2079 16.9277 30.3263 16.9446 30.4333 16.9927C30.5402 17.0407 30.6314 17.118 30.6964 17.2155C30.7692 17.3204 30.8479 17.4212 30.9322 17.5172C31.0101 17.6027 31.0617 17.7087 31.081 17.8227C31.1003 17.9366 31.0864 18.0537 31.041 18.16L30.7387 18.9023L33.1572 19.9072L33.4595 19.1648C33.5044 19.0583 33.5784 18.9666 33.673 18.8999C33.7676 18.8332 33.879 18.7943 33.9945 18.7876L34.188 18.7665L34.3785 18.7363C34.4903 18.7153 34.6059 18.7253 34.7125 18.7652C34.8191 18.8051 34.9127 18.8734 34.9831 18.9627L35.4758 19.6054L37.5587 18.0121L37.072 17.3754C37.0017 17.2834 36.9585 17.1737 36.9473 17.0585C36.9361 16.9434 36.9573 16.8274 37.0085 16.7236C37.0659 16.6069 37.1163 16.487 37.1597 16.3645C37.197 16.2555 37.264 16.1591 37.3532 16.086C37.4423 16.013 37.5502 15.9663 37.6646 15.9511L38.4626 15.8485L38.1241 13.2503L37.326 13.3529C37.2101 13.3694 37.0919 13.3529 36.985 13.3054C36.878 13.2579 36.7867 13.1813 36.7214 13.0844C36.6458 12.9757 36.5672 12.8731 36.4825 12.7826C36.4121 12.6953 36.3665 12.5906 36.3506 12.4797C36.3346 12.3687 36.3489 12.2555 36.3918 12.1519L36.6941 11.4096L34.2757 10.4047L33.9734 11.1471C33.9278 11.2531 33.8537 11.3445 33.7592 11.4111C33.6648 11.4777 33.5537 11.5169 33.4383 11.5243L33.2448 11.5424L33.0665 11.5484C32.9546 11.5694 32.8391 11.5595 32.7325 11.5196C32.6259 11.4797 32.5323 11.4114 32.4618 11.3221L31.9479 10.6914ZM33.4383 13.024C33.8594 12.97 34.2871 13.0416 34.6675 13.23C35.0478 13.4183 35.3638 13.7148 35.5755 14.0822C35.7872 14.4496 35.8852 14.8713 35.857 15.2941C35.8289 15.717 35.6759 16.1221 35.4174 16.4583C35.1589 16.7945 34.8065 17.0468 34.4045 17.1832C34.0026 17.3197 33.5691 17.3343 33.1589 17.2252C32.7486 17.1161 32.3799 16.8881 32.0993 16.57C31.8187 16.252 31.6387 15.8581 31.5821 15.4381C31.5444 15.1578 31.5625 14.8728 31.6354 14.5995C31.7084 14.3263 31.8347 14.0701 32.0072 13.8457C32.1798 13.6214 32.395 13.4333 32.6406 13.2922C32.8862 13.1512 33.1573 13.0601 33.4383 13.024Z" fill="#EBEBEB"/>
<path d="M16.3851 78.7746C16.4987 75.8575 16.4583 72.9365 16.2642 70.0236C15.8316 64.0087 14.9126 58.0385 13.5162 52.1714C12.7483 48.8702 11.8051 45.6232 10.8196 42.3793C10.7894 42.2797 10.6322 42.3069 10.6594 42.4095C13.7036 53.8462 16.2007 65.645 16.0284 77.5344C15.98 80.8538 15.5931 84.1279 15.2787 87.4352C15.2787 87.5227 15.4147 87.5589 15.4359 87.4684C16.0616 84.6288 16.2672 81.6655 16.3851 78.7746Z" fill="#EBEBEB"/>
<path d="M10.6593 42.4004C10.6593 42.4004 6.05212 54.0785 7.08299 56.8125C8.11386 59.5464 10.2421 60.1318 10.2421 60.1318C10.2421 60.1318 7.42157 64.1513 9.39262 67.9203C11.3637 71.6893 15.7411 71.5112 16.0434 75.7842C16.0343 75.8053 16.2762 57.9381 10.6593 42.4004Z" fill="#EBEBEB"/>
<path d="M15.5325 68.4273C15.54 68.4078 15.54 68.3864 15.5325 68.3669C14.9279 60.3941 13.4291 52.5141 11.0644 44.8748C11.0644 44.8537 11.0191 44.8598 11.0251 44.8748C11.9381 48.2948 12.7443 51.7288 13.4436 55.177C12.8242 54.5912 12.0675 54.17 11.2428 53.9518C11.2428 53.9518 11.2186 53.9699 11.2428 53.976C12.1092 54.2929 12.8882 54.8099 13.5162 55.4848C13.6492 56.1637 13.7822 56.8397 13.9061 57.5186C12.8753 56.3689 11.4484 55.7986 10.0185 55.2554C10.0152 55.2568 10.0125 55.2591 10.0105 55.2621C10.0086 55.265 10.0076 55.2685 10.0076 55.272C10.0076 55.2755 10.0086 55.279 10.0105 55.2819C10.0125 55.2849 10.0152 55.2872 10.0185 55.2886C11.5088 55.8921 12.9901 56.6707 13.9998 57.9532C14.3505 59.8905 14.6589 61.8348 14.9249 63.7862C14.1806 63.0078 13.226 62.4617 12.1769 62.214C12.1437 62.214 12.1255 62.2532 12.1588 62.2623C13.2364 62.5791 14.1986 63.2019 14.9279 64.0548H14.9461C15.0368 64.7387 15.1234 65.4258 15.2061 66.1158C14.6302 65.6294 13.9801 65.2382 13.2804 64.957C13.2622 64.957 13.2501 64.9781 13.2804 64.9842C13.9945 65.293 14.6484 65.7251 15.2121 66.2606C15.2121 66.2606 15.2272 66.2606 15.2363 66.2606C15.3119 66.9154 15.3874 67.5703 15.4539 68.2251C14.4159 66.9724 13.0686 66.0114 11.5451 65.4368C11.5387 65.4368 11.5325 65.4394 11.528 65.4439C11.5235 65.4484 11.5209 65.4546 11.5209 65.461C11.5209 65.4674 11.5235 65.4735 11.528 65.478C11.5325 65.4826 11.5387 65.4851 11.5451 65.4851C13.0495 66.147 14.371 67.1627 15.3965 68.4454C15.4078 68.4594 15.423 68.4698 15.4403 68.4752C15.4575 68.4806 15.4759 68.4807 15.4932 68.4755C15.593 69.4804 15.6837 70.4853 15.7563 71.4932C15.7563 71.5082 15.7804 71.5082 15.7804 71.4932C15.7018 70.4813 15.6192 69.4593 15.5325 68.4273Z" fill="white"/>
<path d="M11.8293 52.8021C10.9949 52.2838 10.0417 51.9867 9.06013 51.9391C9.05532 51.9391 9.05071 51.941 9.04731 51.9444C9.0439 51.9478 9.04199 51.9524 9.04199 51.9572C9.04199 51.962 9.0439 51.9666 9.04731 51.97C9.05071 51.9734 9.05532 51.9753 9.06013 51.9753C10.0092 52.1549 10.9301 52.4593 11.799 52.8805C11.8353 52.8896 11.8625 52.8262 11.8293 52.8021Z" fill="white"/>
<path d="M12.3885 65.1652C11.7472 64.7978 11.041 64.5571 10.3086 64.4561C10.2844 64.4561 10.2814 64.4893 10.3086 64.4953C11.0238 64.6385 11.7157 64.8802 12.3643 65.2135C12.3915 65.2286 12.4157 65.1803 12.3885 65.1652Z" fill="white"/>
<path d="M28.5016 57.0147C26.5526 58.3595 24.7626 59.9205 23.1659 61.6678C21.5192 63.5179 20.2491 65.6702 19.4264 68.0048C17.6754 72.8686 16.7338 77.9857 16.6391 83.1532C16.5804 86.0148 16.8553 88.8736 17.4584 91.6719C17.4632 91.6922 17.4758 91.7099 17.4934 91.7213C17.511 91.7326 17.5323 91.7368 17.5529 91.7329C17.5735 91.7291 17.5918 91.7174 17.604 91.7004C17.6162 91.6835 17.6215 91.6624 17.6186 91.6417C16.8682 86.7037 16.8967 81.679 17.7032 76.7498C18.4953 71.9216 19.7378 66.665 22.8152 62.7391C24.49 60.5996 26.579 58.9188 28.6437 57.1806C28.7526 57.0841 28.6135 56.9362 28.5016 57.0147Z" fill="#EBEBEB"/>
<path d="M17.3162 79.6709C18.4256 77.8797 19.7293 76.216 21.2038 74.7099C23.5104 72.4075 25.4513 70.772 25.7536 69.2511C26.0559 67.7302 23.4439 66.6077 23.4439 66.6077C23.4439 66.6077 26.6333 67.181 27.5069 65.8442C28.3806 64.5074 28.8008 56.7642 28.8008 56.7642C28.8008 56.7642 22.9965 60.9014 20.2909 66.7012C17.5852 72.501 17.3162 79.6709 17.3162 79.6709Z" fill="#EBEBEB"/>
<path d="M26.718 64.0278C26.3358 63.9708 25.9483 63.9576 25.5632 63.9884C25.5178 63.9884 25.5208 64.0672 25.5632 64.0703C25.9441 64.0703 26.328 64.0521 26.7089 64.0703C26.7133 64.0691 26.7172 64.0668 26.7203 64.0636C26.7234 64.0603 26.7256 64.0563 26.7265 64.0519C26.7275 64.0475 26.7272 64.0429 26.7257 64.0386C26.7241 64.0344 26.7215 64.0306 26.718 64.0278Z" fill="white"/>
<path d="M22.5492 71.5384C21.9363 71.5508 21.3304 71.6714 20.7595 71.8945C20.7595 71.8945 20.7595 71.9247 20.7595 71.9216C21.3641 71.7798 21.9476 71.7225 22.5462 71.6199C22.554 71.6165 22.5607 71.6109 22.5655 71.6039C22.5703 71.5968 22.573 71.5886 22.5733 71.5801C22.5736 71.5716 22.5715 71.5632 22.5672 71.5558C22.563 71.5484 22.5567 71.5424 22.5492 71.5384Z" fill="white"/>
<path d="M21.2975 68.9433C21.043 68.9412 20.789 68.9636 20.5387 69.0099C20.5341 69.0117 20.5301 69.0148 20.5273 69.0188C20.5245 69.0229 20.5229 69.0277 20.5229 69.0327C20.5229 69.0376 20.5245 69.0425 20.5273 69.0465C20.5301 69.0506 20.5341 69.0537 20.5387 69.0554C20.7921 69.0701 21.0464 69.0589 21.2975 69.0221C21.3079 69.0221 21.3179 69.0179 21.3253 69.0105C21.3327 69.0031 21.3368 68.9931 21.3368 68.9827C21.3368 68.9722 21.3327 68.9622 21.3253 68.9548C21.3179 68.9474 21.3079 68.9433 21.2975 68.9433Z" fill="white"/>
<path d="M0.299231 65.2286C2.18841 65.8679 3.99874 66.7193 5.69542 67.7664C7.45587 68.883 8.98253 70.3301 10.1907 72.0273C12.7328 75.5594 14.6792 79.4828 15.9527 83.642C16.663 85.945 17.1013 88.3229 17.2587 90.7274C17.2554 90.7429 17.2468 90.7569 17.2344 90.7669C17.222 90.7769 17.2066 90.7824 17.1907 90.7824C17.1747 90.7824 17.1593 90.7769 17.1469 90.7669C17.1345 90.7569 17.1259 90.7429 17.1226 90.7274C16.589 86.5583 15.4037 82.4986 13.6098 78.6962C11.8474 74.9694 9.62541 71.0043 6.22748 68.5359C4.37736 67.193 2.29748 66.3119 0.223655 65.3825C0.114824 65.3463 0.190401 65.1924 0.299231 65.2286Z" fill="#EBEBEB"/>
<path d="M14.5984 80.9835C13.285 79.7907 11.8445 78.7454 10.3026 77.8663C7.90231 76.5355 5.95243 75.6604 5.35688 74.4987C4.76134 73.3369 6.61448 71.8281 6.61448 71.8281C6.61448 71.8281 4.16579 73.0351 3.15004 72.1449C2.13429 71.2547 0 65.0988 0 65.0988C0 65.0988 5.65617 67.1055 9.1841 71.1763C12.712 75.247 14.5984 80.9835 14.5984 80.9835Z" fill="#EBEBEB"/>
<path d="M9.90358 75.3165C9.34748 75.2778 8.78911 75.3464 8.25903 75.5186C8.25903 75.5186 8.25903 75.5458 8.25903 75.5428C8.79982 75.4502 9.3462 75.3938 9.89451 75.3738C9.93381 75.3738 9.94288 75.3195 9.90358 75.3165Z" fill="white"/>
<path d="M4.96981 68.8588C4.71613 68.8381 4.46082 68.8523 4.21102 68.9012C4.18381 68.9012 4.19288 68.9497 4.21102 68.9467C4.46193 68.9194 4.7068 68.9285 4.9547 68.9225C4.9624 68.9228 4.96996 68.9204 4.9761 68.9157C4.98224 68.9111 4.98658 68.9044 4.98836 68.8969C4.99015 68.8894 4.98927 68.8814 4.98589 68.8745C4.98251 68.8676 4.97682 68.862 4.96981 68.8588Z" fill="white"/>
<path d="M21.8931 98.5098H9.12671L10.9466 85.1991L11.4122 81.7862H19.6077L20.0733 85.1991L21.8931 98.5098Z" fill="#DBDBDB"/>
<path d="M20.0732 85.1991H10.9465L11.4121 81.7862H19.6076L20.0732 85.1991Z" fill="#C7C7C7"/>
<path d="M20.7777 80.6033H10.2393V83.4942H20.7777V80.6033Z" fill="#DBDBDB"/>
<path d="M1.00977 98.5098L23.9881 98.4373L46.9665 98.4102L92.9233 98.3589L138.88 98.4102L161.858 98.4373L184.837 98.5098L161.858 98.5852L138.88 98.6094L92.9233 98.6606L46.9665 98.6094L23.9881 98.5822L1.00977 98.5098Z" fill="#263238"/>
<path d="M93.5278 121C141.402 121 180.211 116.755 180.211 111.519C180.211 106.282 141.402 102.037 93.5278 102.037C45.6538 102.037 6.84424 106.282 6.84424 111.519C6.84424 116.755 45.6538 121 93.5278 121Z" fill="#EBEBEB"/>
<path d="M73.3487 109.95C72.6443 110.188 52.4472 110.251 51.6733 109.774C51.371 109.593 51.1987 106.657 51.0687 103.103C51.0415 102.336 51.0203 101.542 51.0022 100.74L49.3909 89.985L62.8949 89.8975L64.1677 100.655L64.1163 103.021C64.1163 103.021 71.8614 106.446 72.6534 107.068C73.4455 107.689 74.0531 109.711 73.3487 109.95Z" fill="#EB9481"/>
<path d="M73.3489 109.95C72.6445 110.188 52.4473 110.251 51.6734 109.775C51.3167 109.551 51.1232 105.263 51.0144 100.74L64.1527 100.655L64.1013 103.021C64.1013 103.021 71.8464 106.446 72.6384 107.068C73.4305 107.689 74.0532 109.711 73.3489 109.95Z" fill="white"/>
<path d="M73.3487 109.95C72.6443 110.188 52.4471 110.251 51.6732 109.775C51.3709 109.593 51.1986 106.657 51.0686 103.103L64.089 103.021C64.089 103.021 71.8341 106.446 72.6261 107.068C73.4182 107.689 74.053 109.711 73.3487 109.95Z" fill="#A6A6A6"/>
<path d="M73.0555 109.144C69.6696 109.071 56.0053 109.105 52.6527 109.292C52.6255 109.292 52.6255 109.31 52.6527 109.313C56.0083 109.455 69.6726 109.313 73.0555 109.198C73.128 109.195 73.128 109.144 73.0555 109.144Z" fill="#263238"/>
<path d="M71.3354 106.347C70.9589 106.338 70.5847 106.408 70.2366 106.551C69.8885 106.694 69.574 106.908 69.3129 107.179C68.8373 107.663 68.5685 108.312 68.5632 108.99C68.5632 109.011 68.5995 109.011 68.6025 108.99C68.7149 108.322 69.0406 107.709 69.531 107.241C70.0213 106.773 70.65 106.477 71.3233 106.395C71.3297 106.396 71.3365 106.395 71.3422 106.392C71.3478 106.389 71.3519 106.383 71.3535 106.377C71.3551 106.37 71.3541 106.364 71.3507 106.358C71.3473 106.352 71.3418 106.348 71.3354 106.347Z" fill="#263238"/>
<path d="M65.4133 103.353C64.0589 103.338 62.4899 103.821 61.6495 104.931C61.6193 104.974 61.6798 105.019 61.7191 104.998C62.9023 104.374 64.1488 103.879 65.4374 103.519C65.4574 103.514 65.4746 103.501 65.4859 103.484C65.4972 103.467 65.5018 103.446 65.4989 103.425C65.4959 103.405 65.4855 103.386 65.4698 103.373C65.454 103.36 65.4339 103.353 65.4133 103.353Z" fill="#263238"/>
<path d="M66.4652 103.754C65.1079 103.754 63.5389 104.225 62.7015 105.333C62.6682 105.378 62.7287 105.423 62.771 105.402C63.9526 104.776 65.1982 104.28 66.4864 103.92C66.506 103.915 66.5231 103.903 66.5344 103.886C66.5457 103.869 66.5505 103.848 66.548 103.828C66.5454 103.808 66.5356 103.789 66.5204 103.776C66.5052 103.762 66.4856 103.755 66.4652 103.754Z" fill="#263238"/>
<path d="M67.5112 104.159C66.1568 104.159 64.5878 104.626 63.7474 105.737C63.7172 105.779 63.7777 105.824 63.817 105.803C65.0002 105.18 66.2467 104.684 67.5353 104.325C67.5553 104.319 67.5725 104.307 67.5838 104.289C67.5951 104.272 67.5997 104.251 67.5968 104.231C67.5938 104.211 67.5834 104.192 67.5677 104.179C67.5519 104.165 67.5318 104.158 67.5112 104.159Z" fill="#263238"/>
<path d="M68.5602 104.563C67.2028 104.548 65.6338 105.031 64.7964 106.141C64.7632 106.184 64.8267 106.229 64.866 106.208C66.049 105.584 67.2956 105.088 68.5843 104.729C68.6043 104.724 68.6215 104.711 68.6328 104.694C68.6441 104.677 68.6487 104.656 68.6458 104.635C68.6428 104.615 68.6324 104.596 68.6167 104.583C68.6009 104.57 68.5808 104.563 68.5602 104.563Z" fill="#263238"/>
<path d="M53.5052 106.078C51.9937 106.078 51.9937 108.447 53.5052 108.438C55.0168 108.429 55.0289 106.069 53.5052 106.078Z" fill="#263238"/>
<path d="M66.8673 99.738C66.181 99.1707 65.3164 99.738 64.8962 100.32C64.1968 101.35 63.7798 102.544 63.687 103.785C63.687 103.812 63.7082 103.824 63.7293 103.824C63.7347 103.849 63.7461 103.873 63.7627 103.893C63.7792 103.914 63.8004 103.93 63.8244 103.94C63.8484 103.95 63.8745 103.955 63.9006 103.953C63.9266 103.951 63.9519 103.943 63.9742 103.929C64.9355 103.263 66.048 102.665 66.7766 101.721C67.1908 101.171 67.5293 100.266 66.8673 99.738ZM65.2167 102.617C64.7511 102.958 64.2705 103.275 63.817 103.634C64.0588 102.958 64.2674 102.276 64.5758 101.624C64.7183 101.311 64.8819 101.009 65.0655 100.719C65.3678 100.269 66.6859 99.1344 66.825 100.604C66.9036 101.41 65.7699 102.212 65.2167 102.617Z" fill="#263238"/>
<path d="M60.3132 104.298C61.4922 104.473 62.7105 104.135 63.8683 103.951C63.8935 103.944 63.9167 103.932 63.9362 103.915C63.9557 103.897 63.9709 103.876 63.9806 103.852C63.9903 103.828 63.9943 103.802 63.9921 103.776C63.9899 103.75 63.9817 103.725 63.9681 103.703C63.9725 103.7 63.976 103.695 63.9785 103.69C63.9809 103.685 63.9822 103.68 63.9822 103.674C63.9822 103.669 63.9809 103.663 63.9785 103.658C63.976 103.653 63.9725 103.649 63.9681 103.646C63.0378 102.818 61.9055 102.248 60.685 101.995C59.9716 101.859 58.9619 102.055 58.8712 102.94C58.7624 103.773 59.6239 104.189 60.3132 104.298ZM59.4909 103.531C58.584 102.372 60.3162 102.273 60.8362 102.393C61.1735 102.478 61.5048 102.585 61.8278 102.713C62.489 102.987 63.1357 103.294 63.7655 103.634C63.1912 103.691 62.6258 103.794 62.0545 103.872C61.3713 103.963 59.9988 104.168 59.4909 103.531Z" fill="#263238"/>
<path d="M29.5354 40.276C29.5354 40.276 45.2161 66.9034 45.6363 68.7743C46.2802 71.647 49.6932 100.016 49.6932 100.016L66.0178 99.7138C66.0178 99.7138 63.2064 74.7009 60.5431 66.4598C58.6264 60.5241 44.7868 40.8373 44.7868 40.8373L29.5354 40.276Z" fill="#37474F"/>
<path d="M64.5334 97.2273C62.1905 97.2092 53.8861 97.1157 50.7663 97.4053C50.7421 97.4053 50.7451 97.4476 50.7663 97.4506C51.8395 97.6045 62.1875 97.3661 64.5303 97.2907C64.5352 97.2924 64.5405 97.293 64.5456 97.2924C64.5508 97.2918 64.5558 97.29 64.5601 97.2871C64.5644 97.2842 64.568 97.2803 64.5706 97.2758C64.5731 97.2713 64.5746 97.2662 64.5749 97.261C64.5751 97.2558 64.5741 97.2507 64.572 97.2459C64.5699 97.2412 64.5667 97.237 64.5626 97.2337C64.5586 97.2304 64.5538 97.2282 64.5488 97.227C64.5437 97.2259 64.5384 97.226 64.5334 97.2273Z" fill="#263238"/>
<path d="M32.2107 42.7203C33.2386 44.3287 34.3269 45.9039 35.3729 47.5002C36.4189 49.0965 37.4709 50.6928 38.5078 52.2861C40.5756 55.5049 42.591 58.7448 44.554 62.0058C45.512 63.5174 46.3315 65.1121 47.0026 66.7706C47.6153 68.4295 48.0756 70.1404 48.3781 71.8824C48.6986 73.6296 48.9102 75.3949 49.1067 77.1602C49.3082 79.0372 49.5188 80.9151 49.7385 82.7941C50.1678 86.6385 50.5981 90.483 51.0294 94.3274C51.0808 94.7981 51.1322 95.2689 51.1805 95.7426C51.1805 95.8121 51.0626 95.8241 51.0536 95.7426C50.5729 91.9254 50.1738 88.093 49.7385 84.2757C49.5209 82.3706 49.3042 80.4665 49.0886 78.5634C48.886 76.7921 48.6925 75.0177 48.4174 73.2585C48.165 71.522 47.781 69.8071 47.2687 68.1285C46.7042 66.3905 45.9478 64.7206 45.0135 63.1495C43.124 59.8935 41.1228 56.6948 39.1215 53.4931C37.1202 50.2915 35.0645 47.0626 32.9544 43.9002C32.6944 43.5109 32.4314 43.1216 32.1594 42.7384C32.1382 42.7173 32.1926 42.6901 32.2107 42.7203Z" fill="#263238"/>
<path d="M34.6746 111.519C33.9309 111.473 14.7223 103.706 14.1902 102.97C14.1665 102.926 14.156 102.877 14.16 102.828C14.16 102.167 15.4932 99.8617 16.6057 96.832C16.6752 96.6389 17.171 95.7396 17.8572 94.5296C19.7648 91.2132 23.0902 85.5009 23.0902 85.5009L35.645 90.4799L29.6351 99.4573L28.701 101.63C28.701 101.63 34.593 107.71 35.0887 108.57C35.5845 109.431 35.4152 111.561 34.6746 111.519Z" fill="#EB9481"/>
<path d="M34.6746 111.519C33.9309 111.473 14.7223 103.706 14.1902 102.97C14.1665 102.926 14.156 102.877 14.16 102.828C14.16 102.167 15.4932 99.8617 16.6057 96.832C16.6752 96.6388 17.171 95.7396 17.8572 94.5295L29.6472 99.4573L28.7131 101.63C28.7131 101.63 34.605 107.71 35.1008 108.57C35.5966 109.43 35.4152 111.561 34.6746 111.519Z" fill="white"/>
<path d="M34.6747 111.519C33.931 111.473 14.7224 103.706 14.1903 102.97C13.9848 102.689 14.8433 100.073 16.6088 96.832L28.7011 101.633C28.7011 101.633 34.5931 107.707 35.0919 108.574C35.5907 109.44 35.4153 111.561 34.6747 111.519Z" fill="#A6A6A6"/>
<path d="M34.7048 110.662C31.5941 109.328 18.9153 104.24 15.7381 103.16C15.7109 103.16 15.7048 103.16 15.7381 103.178C18.7944 104.566 31.5125 109.551 34.6927 110.722C34.7532 110.737 34.7713 110.689 34.7048 110.662Z" fill="#263238"/>
<path d="M34.1605 107.424C33.8156 107.273 33.443 107.194 33.0662 107.194C32.6894 107.194 32.3168 107.273 31.9718 107.424C31.3516 107.695 30.86 108.194 30.5994 108.818C30.5994 108.836 30.6266 108.851 30.6356 108.833C30.992 108.254 31.5267 107.807 32.1594 107.557C32.7922 107.307 33.489 107.269 34.1454 107.448C34.1505 107.447 34.1549 107.443 34.1577 107.439C34.1605 107.434 34.1615 107.429 34.1605 107.424Z" fill="#263238"/>
<path d="M29.7983 102.433C28.5498 101.911 26.9113 101.772 25.7172 102.487C25.6718 102.514 25.7172 102.578 25.7565 102.574C27.0876 102.44 28.4294 102.447 29.759 102.596C29.7795 102.598 29.8001 102.593 29.8169 102.581C29.8337 102.569 29.8457 102.551 29.8505 102.531C29.8553 102.511 29.8527 102.49 29.8431 102.472C29.8335 102.454 29.8176 102.44 29.7983 102.433Z" fill="#263238"/>
<path d="M30.6177 103.199C29.3691 102.677 27.7306 102.538 26.5365 103.253C26.4912 103.281 26.5365 103.344 26.5758 103.341C27.9069 103.205 29.2488 103.212 30.5784 103.362C30.5988 103.364 30.6194 103.359 30.6362 103.347C30.6531 103.335 30.665 103.318 30.6698 103.298C30.6746 103.278 30.672 103.257 30.6624 103.239C30.6528 103.221 30.6369 103.206 30.6177 103.199Z" fill="#263238"/>
<path d="M31.4399 103.966C30.1883 103.444 28.5498 103.305 27.3587 104.02C27.3104 104.047 27.3587 104.11 27.395 104.107C28.7261 103.971 30.068 103.978 31.3976 104.129C31.4184 104.132 31.4399 104.128 31.4576 104.116C31.4754 104.105 31.4882 104.087 31.4935 104.066C31.4988 104.046 31.4962 104.024 31.4863 104.006C31.4764 103.987 31.4598 103.973 31.4399 103.966Z" fill="#263238"/>
<path d="M32.2592 104.732C31.0077 104.21 29.3722 104.071 28.1781 104.783C28.1297 104.814 28.1781 104.877 28.2143 104.874C29.5454 104.738 30.8873 104.745 32.2169 104.895C32.2378 104.899 32.2592 104.894 32.277 104.883C32.2947 104.871 32.3075 104.853 32.3128 104.833C32.3181 104.812 32.3156 104.791 32.3057 104.772C32.2957 104.753 32.2792 104.739 32.2592 104.732Z" fill="#263238"/>
<path d="M17.7332 100.498C16.3215 99.9371 15.4448 102.131 16.8626 102.692C18.2804 103.253 19.1601 101.06 17.7332 100.498Z" fill="#263238"/>
<path d="M32.504 99.6263C32.0777 98.8448 31.0711 99.0379 30.4574 99.4272C29.4236 100.118 28.5897 101.068 28.0389 102.182C28.0365 102.187 28.0352 102.192 28.0352 102.198C28.0351 102.203 28.0363 102.209 28.0386 102.214C28.0409 102.219 28.0443 102.223 28.0486 102.226C28.0528 102.23 28.0578 102.232 28.0631 102.234C28.0631 102.333 28.1296 102.451 28.2475 102.427C29.3933 102.164 30.6478 102.028 31.6757 101.425C32.2652 101.075 32.9061 100.366 32.504 99.6263ZM29.889 101.675C29.3298 101.817 28.7675 101.932 28.2143 102.095C28.6719 101.544 29.1572 101.018 29.6684 100.517C29.92 100.277 30.1877 100.056 30.4695 99.8526C30.9078 99.5509 32.5645 98.9926 32.1412 100.408C31.9085 101.189 30.5571 101.506 29.889 101.675Z" fill="#263238"/>
<path d="M24.7136 101.398C25.7414 102.001 26.996 102.143 28.1387 102.409C28.2566 102.436 28.3352 102.318 28.3261 102.215C28.3318 102.215 28.3372 102.213 28.3419 102.209C28.3465 102.206 28.3502 102.202 28.3527 102.197C28.3551 102.191 28.3561 102.186 28.3557 102.18C28.3553 102.174 28.3535 102.169 28.3503 102.164C27.8004 101.048 26.9664 100.096 25.9319 99.403C25.3272 99.0107 24.3145 98.8146 23.8852 99.5931C23.456 100.372 24.112 101.045 24.7136 101.398ZM24.242 100.378C23.8217 98.9624 25.4754 99.5237 25.9137 99.8285C26.1952 100.032 26.4619 100.255 26.7118 100.495C27.222 100.998 27.7063 101.525 28.1629 102.077C27.6097 101.914 27.0474 101.796 26.4881 101.654C25.8109 101.473 24.4717 101.171 24.242 100.378Z" fill="#263238"/>
<path d="M30.6116 98.9564L16.5574 93.2923C16.5574 93.2923 33.9824 67.7181 34.1093 65.814C34.2242 64.1302 26.5698 49.4586 26.2705 45.1826C25.944 40.5657 28.169 36.9959 30.6177 34.7779L45.1133 40.9308C45.1133 40.9308 43.5836 43.3721 41.1833 44.733C41.1833 44.733 48.6171 61.692 48.1938 66.9064C47.7706 72.1208 30.6116 98.9564 30.6116 98.9564Z" fill="#37474F"/>
<path d="M31.2344 96.2888C29.2029 95.4167 29.7984 95.637 27.7548 94.78C26.7572 94.3636 20.1971 91.6387 19.1874 91.4124C19.1663 91.4124 19.1511 91.4426 19.1723 91.4546C20.046 91.9887 26.6605 94.599 27.6671 94.9973C29.7259 95.806 29.1424 95.5525 31.2102 96.3371C31.2133 96.3412 31.2174 96.3445 31.2221 96.3466C31.2268 96.3487 31.2319 96.3495 31.2371 96.3491C31.2422 96.3486 31.2471 96.3468 31.2514 96.3439C31.2557 96.341 31.2591 96.3371 31.2614 96.3325C31.2637 96.3279 31.2648 96.3228 31.2646 96.3177C31.2643 96.3125 31.2628 96.3075 31.2601 96.3031C31.2574 96.2988 31.2536 96.2952 31.2491 96.2927C31.2446 96.2902 31.2395 96.2888 31.2344 96.2888Z" fill="#263238"/>
<path d="M43.5594 44.4222C42.0503 44.7733 40.5737 45.2518 39.1458 45.8525C39.14 45.8545 39.1347 45.8576 39.1301 45.8616C39.1256 45.8657 39.1219 45.8706 39.1192 45.876C39.1165 45.8815 39.115 45.8874 39.1146 45.8935C39.1142 45.8996 39.1151 45.9056 39.117 45.9114C39.119 45.9171 39.1221 45.9224 39.1262 45.927C39.1302 45.9315 39.1351 45.9352 39.1406 45.9379C39.146 45.9406 39.152 45.9421 39.1581 45.9425C39.1641 45.9429 39.1702 45.942 39.176 45.94C40.6573 45.5085 42.1628 45.1042 43.6199 44.5942C43.7318 44.555 43.6743 44.398 43.5594 44.4222Z" fill="#263238"/>
<path d="M41.8333 43.8368C41.6924 44.0869 41.5682 44.3459 41.4615 44.6123C41.3571 44.8145 41.2925 45.0347 41.271 45.2611C41.271 45.3064 41.3315 45.3154 41.3587 45.2882C41.5103 45.1072 41.6327 44.9035 41.7214 44.6847C41.8454 44.4463 41.9724 44.211 42.0903 43.9665C42.1719 43.7885 41.927 43.6738 41.8333 43.8368Z" fill="#263238"/>
<path d="M42.0147 42.4668C42.1054 42.2435 42.193 42.0232 42.2867 41.7999C42.3805 41.5766 42.4984 41.3473 42.5891 41.1119C42.5891 41.0757 42.6616 41.1119 42.6465 41.139C42.5558 41.3623 42.4984 41.5977 42.4288 41.8271C42.3593 42.0564 42.2807 42.2857 42.2051 42.5151C42.063 42.9406 41.9028 43.363 41.7063 43.7764C41.9442 43.7883 42.1817 43.747 42.4016 43.6557C42.6262 43.5122 42.7989 43.3007 42.8944 43.0522C43.0214 42.8048 43.1393 42.5513 43.2692 42.3038C43.4293 42.0363 43.5639 41.7545 43.6713 41.4619C43.6713 41.4257 43.7439 41.4619 43.7288 41.4891C43.5316 42.1076 43.2734 42.705 42.9579 43.2725C42.8218 43.4928 42.716 43.7251 42.4681 43.8096C42.1998 43.8845 41.919 43.904 41.6428 43.867C41.6066 43.867 41.5642 43.867 41.5763 43.8126C41.7001 43.3571 41.8464 42.9079 42.0147 42.4668Z" fill="#263238"/>
<path d="M41.3979 45.2852C41.9148 46.3746 42.3683 47.4609 42.849 48.5473C43.3296 49.6336 43.7559 50.6837 44.1882 51.764C45.0528 53.9427 45.8267 56.1637 46.5069 58.4028C46.8425 59.5132 47.1538 60.6328 47.4319 61.7614C47.7383 62.8864 47.9626 64.032 48.1031 65.1894C48.2244 66.3448 48.1217 67.5127 47.8008 68.6294C47.4674 69.7333 47.0395 70.8065 46.522 71.8372C46.2046 72.489 46.0988 72.4014 46.2499 72.0725C46.6822 71.1371 47.8159 68.3035 47.7343 65.9226C47.6681 64.7828 47.492 63.652 47.2082 62.5459C46.9442 61.4053 46.647 60.2737 46.3164 59.1511C45.6725 56.9362 44.9077 54.7665 44.1217 52.5999C43.6803 51.3929 43.2148 50.1858 42.7613 48.9788C42.3078 47.7717 41.8544 46.6613 41.3465 45.3275C41.3314 45.2732 41.3828 45.252 41.3979 45.2852Z" fill="#263238"/>
<path d="M30.7296 41.6852C30.9805 41.5917 31.3342 41.7456 31.5881 41.7878C31.917 41.8435 32.2493 41.8768 32.5827 41.8874C32.9126 41.899 33.2429 41.8879 33.5713 41.8542C33.902 41.8457 34.226 41.7599 34.5175 41.6037C34.9957 41.256 35.4056 40.8233 35.7267 40.3273C36.1094 39.8205 36.4253 39.2667 36.6669 38.6797C36.6669 38.6435 36.7304 38.6797 36.7183 38.7038C36.6125 39.0388 36.5339 39.3768 36.416 39.7057C36.2857 40.0147 36.1299 40.3125 35.9504 40.5959C35.6594 41.1662 35.2289 41.654 34.6989 42.0141C34.1154 42.3461 33.3657 42.3159 32.7157 42.2887C32.3388 42.2668 31.9639 42.2174 31.5942 42.1409C31.3281 42.0835 30.8807 42.0413 30.7114 41.8089C30.7035 41.8001 30.6976 41.7895 30.6941 41.7781C30.6907 41.7667 30.6898 41.7547 30.6915 41.7429C30.6933 41.7311 30.6976 41.7198 30.7041 41.7098C30.7107 41.6999 30.7194 41.6915 30.7296 41.6852Z" fill="#263238"/>
<path d="M20.5689 90.6097C22.8785 87.1173 25.1458 83.5968 27.3708 80.0481C29.5958 76.4994 31.7905 72.9235 33.955 69.3205C34.472 68.4605 35.0675 67.6035 35.4001 66.6499C35.7628 65.6149 35.5573 64.61 35.2308 63.5961C34.6143 61.7464 33.8936 59.933 33.0723 58.1644C32.2621 56.381 31.3884 54.6278 30.5299 52.8685C29.6713 51.1092 28.7735 49.3711 28.1114 47.5364C27.5068 45.7831 27.2619 43.9666 27.7335 42.15C28.2051 40.3334 29.2209 38.728 30.282 37.2162C30.5601 36.8178 30.8473 36.4225 31.1285 36.0091C31.1496 35.9789 31.195 36.0091 31.1738 36.0453C30.0039 37.6205 28.8642 39.2893 28.1779 41.1391C27.8272 42.0508 27.631 43.0146 27.5975 43.9907C27.5918 44.9815 27.7459 45.9668 28.054 46.9087C28.6223 48.7434 29.5202 50.4785 30.3576 52.2046C31.195 53.9307 32.0898 55.7171 32.9151 57.4945C33.7665 59.2833 34.5233 61.1155 35.1824 62.9835C35.4635 63.8134 35.787 64.6824 35.7628 65.5726C35.7417 66.5473 35.2761 67.4254 34.7924 68.2462C32.6763 71.8221 30.5087 75.3557 28.3019 78.8682C26.095 82.3807 23.8247 85.8932 21.5272 89.3695L20.6565 90.6821C20.6112 90.7364 20.5326 90.6731 20.5689 90.6097Z" fill="#263238"/>
<path d="M45.9174 24.6659C47.2264 27.5327 53.8378 31.4827 56.9335 31.9082C59.1584 32.21 65.9241 32.3186 68.2428 31.9655C70.9635 31.5491 68.8837 24.2314 67.2784 24.4215C62.8647 24.9345 59.1161 25.5078 57.9371 25.5078C56.4981 25.5078 48.7137 23.0153 47.7766 22.6622C45.479 21.8083 45.1767 23.0394 45.9174 24.6659Z" fill="#EB9481"/>
<path d="M45.9597 25.4294C47.6163 27.8767 53.1214 31.878 53.1214 31.878L53.8862 30.1881L56.4165 24.5995C56.4165 24.5995 51.3589 23.0153 48.0305 22.2911C47.6388 22.2021 47.2404 22.1456 46.8394 22.1221C44.7142 22.0074 44.5298 23.3171 45.9597 25.4294Z" fill="#F8772F"/>
<path d="M45.9597 25.4294C47.6163 27.8767 53.1214 31.878 53.1214 31.878L53.8862 30.1881C51.8335 27.8072 48.6623 24.2012 46.8394 22.1281C44.7142 22.0074 44.5298 23.317 45.9597 25.4294Z" fill="#263238"/>
<path d="M52.1298 30.7434C52.55 29.7144 54.4182 25.5712 54.8838 24.7082C54.914 24.6478 54.9624 24.6538 54.9352 24.7082C54.1248 26.7686 53.2024 28.7833 52.1721 30.7434C52.16 30.7796 52.1116 30.7675 52.1298 30.7434Z" fill="#263238"/>
<path d="M66.4683 24.4969C69.1528 24.1469 72.4751 23.5464 75.2896 24.7384C75.6057 24.8621 75.8709 25.0885 76.0423 25.3811C77.312 25.8941 77.4511 26.6455 77.4511 26.6455C78.488 27.4844 78.5243 28.275 78.5243 28.275C78.5243 28.275 80.0116 28.8785 79.7849 29.8502C79.537 30.9244 77.4995 29.8502 76.0181 29.9377C72.6172 30.1489 67.8559 31.3952 66.8734 31.5521L66.4683 24.4969Z" fill="#EB9481"/>
<path d="M72.2997 27.6594C73.2941 27.5915 74.2921 27.5915 75.2865 27.6594C76.3695 27.795 77.4406 28.0119 78.491 28.3082C78.4978 28.3106 78.5053 28.3102 78.5118 28.3071C78.5183 28.3039 78.5233 28.2984 78.5257 28.2916C78.5281 28.2848 78.5277 28.2773 78.5246 28.2708C78.5215 28.2643 78.5159 28.2593 78.5091 28.2569C76.5359 27.4841 74.388 27.267 72.2997 27.6292C72.2513 27.6232 72.2513 27.6624 72.2997 27.6594Z" fill="#263238"/>
<path d="M71.6679 24.5241C73.3276 24.6086 74.3645 24.8741 76.0332 25.3751V25.3569C74.1952 24.5905 73.4425 24.518 71.6588 24.4517C71.6014 24.4758 71.6044 24.5241 71.6679 24.5241Z" fill="#263238"/>
<path d="M71.9369 30.4507C71.5046 30.6529 71.6105 30.8792 72.4358 31.0693C73.2611 31.2594 76.6922 31.3167 76.5713 32.5117C76.4504 33.7067 71.6105 33.5558 70.2591 33.1333C68.9078 32.7109 66.8733 31.5521 66.8733 31.5521C67.8316 31.3922 70.0808 30.7856 71.9369 30.4507Z" fill="#EB9481"/>
<path d="M49.5119 29.2346C49.4908 29.7506 49.4424 30.2757 49.3698 30.7977C49.3698 30.7766 49.3699 30.7585 49.391 30.7404C49.4908 30.4688 49.5905 30.1912 49.7115 29.9286C49.7115 29.9286 49.7417 29.9286 49.7387 29.9286C49.6806 30.2163 49.5935 30.4974 49.4787 30.7675C49.4243 30.8973 49.3729 31.024 49.3154 31.1508C49.2792 31.3831 49.2368 31.6125 49.1915 31.8418C49.1008 32.2733 48.6927 34.108 48.5869 34.4188C48.5687 34.4822 48.4901 34.4671 48.4962 34.3947C48.5173 34.0567 48.859 32.1466 48.9285 31.712C49.0635 30.873 49.2442 30.042 49.4696 29.2225C49.4847 29.2074 49.515 29.2195 49.5119 29.2346Z" fill="#263238"/>
<path d="M46.3678 42.9556C45.5607 43.3691 44.5207 44.0118 39.835 43.0914C39.5327 43.0311 39.2485 42.9587 38.9522 42.8712C34.5597 41.5555 29.2784 36.3984 28.9912 36.0333C28.9912 36.0333 35.9715 24.7384 44.8986 21.1866C46.002 20.7491 47.828 21.594 48.8286 22.6472C49.1884 23.0244 49.9713 25.7975 49.6721 28.0426C49.3728 30.2877 47.172 42.5422 46.3678 42.9556Z" fill="#F8772F"/>
<path d="M45.7395 27.94C45.7733 28.4173 45.7062 28.8964 45.5425 29.3462C45.5041 28.8688 45.5713 28.3888 45.7395 27.94Z" fill="white"/>
<path d="M42.6953 35.6319C42.7146 35.8694 42.7065 36.1084 42.6711 36.3441C42.6419 36.5815 42.5839 36.8146 42.4983 37.0381C42.4775 36.7996 42.4856 36.5595 42.5226 36.3229C42.5536 36.0868 42.6115 35.8549 42.6953 35.6319Z" fill="white"/>
<path d="M37.5228 29.817C37.5569 30.2953 37.4898 30.7754 37.3258 31.2262C37.2877 30.7478 37.3549 30.2669 37.5228 29.817Z" fill="white"/>
<path d="M47.7317 35.2396C47.7511 35.4782 47.7429 35.7181 47.7074 35.9548C47.6783 36.1923 47.6203 36.4253 47.5347 36.6488C47.5138 36.4104 47.522 36.1702 47.559 35.9337C47.5896 35.6965 47.6475 35.4636 47.7317 35.2396Z" fill="white"/>
<path d="M41.0896 28.8212C41.3274 28.8009 41.5668 28.808 41.803 28.8424C42.041 28.8727 42.2745 28.9317 42.4984 29.0182C42.0202 29.0526 41.5401 28.9855 41.0896 28.8212Z" fill="white"/>
<path d="M35.2188 34.3766C35.6969 34.3428 36.1768 34.4099 36.6275 34.5736C36.1492 34.612 35.6683 34.5448 35.2188 34.3766Z" fill="white"/>
<path d="M42.1355 40.3907C42.6137 40.3563 43.0937 40.4234 43.5443 40.5877C43.066 40.6255 42.5852 40.5583 42.1355 40.3907Z" fill="white"/>
<path d="M33.408 38.206C33.8861 38.1722 34.366 38.2393 34.8167 38.4029C34.3384 38.4408 33.8577 38.3736 33.408 38.206Z" fill="white"/>
<path d="M45.6936 22.5325C46.1718 22.4987 46.6517 22.5658 47.1024 22.7295C46.6242 22.7633 46.1443 22.6962 45.6936 22.5325Z" fill="white"/>
<path d="M43.9857 24.4577C43.8328 24.6411 43.6582 24.8052 43.4657 24.9466C43.2784 25.0912 43.0756 25.2146 42.8611 25.3147C43.0129 25.1325 43.1854 24.9684 43.375 24.8259C43.5641 24.6807 43.7689 24.5572 43.9857 24.4577Z" fill="white"/>
<path d="M34.6777 29.9286C34.5229 30.1104 34.3474 30.2735 34.1547 30.4145C33.9692 30.5618 33.7661 30.6855 33.55 30.7826C33.7056 30.6016 33.881 30.4386 34.073 30.2968C34.2589 30.1501 34.4619 30.0264 34.6777 29.9286Z" fill="white"/>
<path d="M46.3014 32.397C46.1468 32.5798 45.9713 32.7438 45.7784 32.8859C45.5926 33.0326 45.3896 33.1562 45.1738 33.254C45.3285 33.0713 45.504 32.9072 45.6968 32.7652C45.8837 32.62 46.0865 32.4964 46.3014 32.397Z" fill="white"/>
<path d="M38.7738 37.1286C38.6192 37.3114 38.4437 37.4754 38.2509 37.6175C38.0647 37.7637 37.8617 37.8873 37.6462 37.9856C37.8009 37.8029 37.9764 37.6388 38.1692 37.4968C38.3561 37.3516 38.559 37.228 38.7738 37.1286Z" fill="white"/>
<path d="M49.1852 25.9333C49.0306 26.1161 48.8551 26.2801 48.6622 26.4222C48.4749 26.5668 48.2721 26.6902 48.0576 26.7903C48.2123 26.6076 48.3878 26.4435 48.5806 26.3015C48.7668 26.1552 48.9697 26.0316 49.1852 25.9333Z" fill="white"/>
<path d="M49.0282 31.4163C48.8452 31.2619 48.6808 31.0867 48.5385 30.8943C48.3914 30.7089 48.2675 30.5062 48.1697 30.2907C48.3534 30.4433 48.5179 30.6176 48.6594 30.8098C48.8038 30.9981 48.9275 31.2015 49.0282 31.4163Z" fill="white"/>
<path d="M32.2502 35.1944C32.0671 35.04 31.9027 34.8648 31.7604 34.6723C31.6149 34.4858 31.4912 34.2833 31.3916 34.0688C31.5747 34.2232 31.739 34.3984 31.8813 34.5908C32.0279 34.7767 32.1517 34.9793 32.2502 35.1944Z" fill="white"/>
<path d="M46.9875 39.6876C46.8037 39.535 46.6393 39.3607 46.4977 39.1686C46.3529 38.9816 46.2292 38.7792 46.1289 38.565C46.312 38.7194 46.4763 38.8946 46.6186 39.0871C46.7645 39.2723 46.8883 39.4738 46.9875 39.6876Z" fill="white"/>
<path d="M39.6022 26.8778C39.4192 26.7245 39.2548 26.5503 39.1125 26.3588C38.9682 26.1714 38.8446 25.9691 38.7437 25.7553C38.9274 25.9078 39.0918 26.0821 39.2334 26.2743C39.3776 26.4617 39.5013 26.664 39.6022 26.8778Z" fill="white"/>
<path d="M39.7321 42.2465C39.549 42.0921 39.3847 41.9169 39.2423 41.7245C39.0973 41.5376 38.9736 41.3352 38.8735 41.1209C39.0573 41.2735 39.2217 41.4478 39.3633 41.64C39.5087 41.8276 39.6325 42.0311 39.7321 42.2465Z" fill="white"/>
<path d="M40.9866 33.1816C40.8053 33.0264 40.642 32.8512 40.4999 32.6596C40.3523 32.4745 40.2284 32.2717 40.1311 32.056C40.3132 32.2105 40.4766 32.3857 40.6178 32.5781C40.7648 32.7636 40.8886 32.9663 40.9866 33.1816Z" fill="white"/>
<path d="M47.1931 25.6557C46.0534 25.4445 44.9832 23.0938 44.8472 21.5125C44.8472 21.4039 45.3792 20.5439 45.9869 19.4666C46.3557 18.8118 46.7457 18.0725 47.057 17.3724C47.1205 17.2306 47.4924 17.7103 47.4924 17.7103L48.3025 18.3139L50.978 20.3628C50.3409 21.1259 49.7997 21.964 49.3667 22.8584C49.3239 22.9553 49.2915 23.0565 49.2699 23.1601C49.2687 23.1772 49.2687 23.1944 49.2699 23.2114C49.1037 23.8089 48.2904 25.8579 47.1931 25.6557Z" fill="#EB9481"/>
<path d="M49.2701 23.1752C49.2689 23.1923 49.2689 23.2094 49.2701 23.2265C49.1112 23.18 48.9565 23.1205 48.8075 23.0485C45.8782 21.6785 47.169 17.7616 47.169 17.7616L48.3178 18.3289L50.9932 20.3779C50.3561 21.141 49.815 21.9791 49.3819 22.8735C49.334 22.9698 49.2965 23.0709 49.2701 23.1752Z" fill="#263238"/>
<path d="M54.0525 12.0252C54.0525 12.0252 55.3917 12.8731 55.3978 14.3819C55.4038 15.8907 54.7931 17.3663 54.6662 17.4207C54.5392 17.475 54.0525 12.0252 54.0525 12.0252Z" fill="#263238"/>
<path d="M47.4079 12.8098C46.6037 14.394 46.6461 19.3881 47.6497 20.6736C49.1068 22.5385 51.9123 23.1813 53.6082 21.3375C55.2497 19.5511 55.0804 13.0451 53.9105 11.832C52.2085 10.0396 48.599 10.4651 47.4079 12.8098Z" fill="#EB9481"/>
<path d="M51.6771 16.8081C51.6771 16.8081 51.6499 16.8262 51.6529 16.8383C51.6711 17.1792 51.6347 17.5715 51.3286 17.6922C51.3286 17.6922 51.3286 17.7134 51.3286 17.7103C51.7074 17.65 51.7499 17.1279 51.6771 16.8081Z" fill="#263238"/>
<path d="M51.3649 16.4611C50.8147 16.4309 50.7965 17.5293 51.3074 17.5565C51.8183 17.5836 51.8244 16.4852 51.3649 16.4611Z" fill="#263238"/>
<path d="M53.5416 16.796C53.5416 16.796 53.5689 16.796 53.5689 16.8262C53.5507 17.1672 53.5901 17.5594 53.8993 17.6771C53.8993 17.6771 53.8993 17.6983 53.8993 17.6952C53.5174 17.6379 53.4719 17.1159 53.5416 16.796Z" fill="#263238"/>
<path d="M53.8529 16.446C54.4001 16.4128 54.4273 17.5112 53.9194 17.5413C53.4115 17.5715 53.3934 16.4731 53.8529 16.446Z" fill="#263238"/>
<path d="M51.0203 15.6252C51.1648 15.5841 51.307 15.5358 51.4466 15.4803C51.6054 15.4516 51.75 15.3709 51.8577 15.251C51.8838 15.2071 51.8948 15.1558 51.8887 15.105C51.8827 15.0543 51.8601 15.007 51.8245 14.9703C51.7427 14.9083 51.6457 14.8691 51.5437 14.8569C51.4417 14.8447 51.3382 14.8599 51.244 14.9009C51.04 14.9555 50.8634 15.0834 50.7482 15.26C50.7252 15.3021 50.7148 15.3498 50.7181 15.3976C50.7215 15.4454 50.7385 15.4912 50.7671 15.5296C50.7957 15.568 50.8348 15.5975 50.8797 15.6144C50.9246 15.6313 50.9734 15.6351 51.0203 15.6252Z" fill="#263238"/>
<path d="M54.2279 16.111C54.0809 16.0782 53.9356 16.0379 53.7926 15.9903C53.6333 15.9693 53.4855 15.896 53.3724 15.7821C53.3433 15.7401 53.3292 15.6896 53.3325 15.6386C53.3358 15.5877 53.3562 15.5393 53.3905 15.5015C53.4685 15.4349 53.563 15.3906 53.664 15.373C53.7651 15.3555 53.869 15.3655 53.9649 15.4019C54.1717 15.4446 54.355 15.563 54.4788 15.7338C54.5047 15.7742 54.5183 15.8213 54.5179 15.8693C54.5175 15.9172 54.5031 15.9641 54.4765 16.004C54.45 16.044 54.4123 16.0754 54.3682 16.0944C54.324 16.1134 54.2753 16.1192 54.2279 16.111Z" fill="#263238"/>
<path d="M50.9026 20.0339C50.9842 20.1154 51.0628 20.224 51.1867 20.2361C51.3138 20.236 51.4395 20.2093 51.5555 20.1576C51.5555 20.1576 51.5767 20.1576 51.5555 20.1757C51.506 20.242 51.4393 20.2936 51.3626 20.325C51.2859 20.3564 51.2021 20.3663 51.1202 20.3537C51.0512 20.3349 50.9891 20.2963 50.9419 20.2427C50.8946 20.1891 50.8641 20.1227 50.8542 20.052C50.8518 20.0456 50.852 20.0385 50.8549 20.0323C50.8577 20.026 50.8629 20.0212 50.8693 20.0188C50.8757 20.0164 50.8828 20.0166 50.8891 20.0195C50.8953 20.0223 50.9001 20.0275 50.9026 20.0339Z" fill="#263238"/>
<path d="M52.8796 18.5794C52.8796 18.5794 52.8947 19.0864 52.8796 19.3248C52.415 19.2756 51.9459 19.2918 51.4859 19.373C51.3771 19.3972 51.3892 19.3097 51.5131 19.2523C51.8837 19.0833 52.2963 19.0286 52.6982 19.0954C52.7224 19.032 52.6589 18.3108 52.6982 18.3139C52.8811 18.3497 53.0581 18.4106 53.2242 18.4949C53.2242 17.4327 53.0549 16.3826 53.07 15.3204C53.07 15.2842 53.1275 15.2781 53.1335 15.3204C53.3483 16.4441 53.4496 17.5864 53.4358 18.7303C53.4388 18.86 52.9703 18.6277 52.8796 18.5794Z" fill="#263238"/>
<path d="M52.1994 19.1437C52.0789 19.4601 51.8553 19.7269 51.5646 19.9011C51.1081 20.0852 50.96 19.6718 51.4195 19.2976C51.6605 19.176 51.9302 19.1228 52.1994 19.1437Z" fill="#263238"/>
<path d="M51.7248 19.8076C51.6765 19.8468 51.6225 19.8784 51.5646 19.9011C51.1444 20.0701 50.9781 19.7352 51.3167 19.3972C51.5464 19.4153 51.8095 19.4998 51.7248 19.8076Z" fill="#FF99BA"/>
<path d="M47.1779 17.0797C47.7311 17.2486 48.366 15.589 48.5474 14.9673C48.7046 14.4061 48.886 12.6227 48.9132 12.4989C48.9404 12.3752 51.3316 14.0771 52.7162 13.6728C54.1008 13.2684 55.0409 12.0161 55.0621 11.4337C55.0833 10.8513 53.351 9.37269 51.8546 9.29725C50.3582 9.22181 48.3297 11.1078 48.3297 11.1078C48.5747 10.8303 48.7971 10.5336 48.9948 10.2206C48.9706 10.1542 48.0032 10.5405 47.8249 11.2285C47.8249 11.2285 48.0183 10.3625 47.9458 10.3474C47.8732 10.3323 47.1205 11.0716 47.2898 11.6329C47.2898 11.6329 46.4191 12.3843 46.3405 13.2081C46.2619 14.0319 46.528 16.8805 47.1779 17.0797Z" fill="#263238"/>
<path d="M53.7079 13.359C53.2961 13.5818 52.8527 13.7406 52.3928 13.8297C51.8767 13.8756 51.3573 13.7927 50.8813 13.5883C50.4018 13.4034 49.9564 13.1403 49.5633 12.8097C49.2156 12.5261 48.9042 12.1791 48.5324 11.9256C48.4387 11.8592 48.3329 11.995 48.3903 12.0795C49.0107 12.9542 49.8969 13.606 50.9176 13.9383C51.3916 14.0926 51.8977 14.1215 52.3863 14.022C52.8748 13.9226 53.3292 13.6983 53.7049 13.371C53.7049 13.371 53.7139 13.359 53.7079 13.359Z" fill="#263238"/>
<path d="M47.7553 16.9318C47.7553 16.9318 46.8968 15.1937 46.1229 15.4743C45.349 15.7549 45.8206 18.16 46.6156 18.6005C46.713 18.6634 46.8221 18.706 46.9364 18.7258C47.0507 18.7456 47.1678 18.7422 47.2807 18.7157C47.3937 18.6892 47.5001 18.6402 47.5936 18.5717C47.687 18.5032 47.7657 18.4165 47.8249 18.3169L47.7553 16.9318Z" fill="#EB9481"/>
<path d="M46.2771 16.1593C46.2771 16.1593 46.259 16.1593 46.2771 16.1834C46.8273 16.5093 47.051 17.0887 47.184 17.6922C47.159 17.6284 47.1203 17.5707 47.0708 17.5231C47.0212 17.4756 46.9619 17.4394 46.8969 17.417C46.8319 17.3947 46.7628 17.3866 46.6945 17.3935C46.6261 17.4004 46.56 17.422 46.5008 17.4569C46.4827 17.4569 46.5008 17.4901 46.5008 17.4901C46.609 17.4733 46.7197 17.4904 46.8177 17.539C46.9157 17.5877 46.9961 17.6654 47.048 17.7617C47.1345 17.9228 47.2034 18.0928 47.2536 18.2686C47.2717 18.3259 47.3715 18.3109 47.3624 18.2475C47.4924 17.4961 47.0691 16.3585 46.2771 16.1593Z" fill="#263238"/>
<path d="M42.0871 24.6931C41.4825 28.112 45.1948 39.6302 47.574 41.7818C51.114 44.9805 57.6589 47.0837 60.032 47.7687C61.0659 48.0705 63.9258 40.8071 62.8798 40.3273C60.6397 39.3104 53.6806 37.1377 53.0185 36.5945C52.3565 36.0514 48.366 30.2968 46.5884 26.9834C44.2093 22.5234 42.3864 22.964 42.0871 24.6931Z" fill="#EB9481"/>
<path d="M61.1174 39.6876C61.1174 39.6876 64.207 40.4752 66.1992 41.0817C67.3117 41.4227 69.1679 42.1741 69.8723 42.7957C70.9243 43.7281 74.7273 48.2908 73.639 49.2353C72.6535 50.0923 69.8844 45.756 69.8844 45.756C69.8844 45.756 73.0646 49.8841 71.6982 50.6958C70.3318 51.5075 67.8317 46.1935 67.8317 46.1935C67.8317 46.1935 71.0029 50.5087 69.4521 51.1213C68.2791 51.583 65.7639 46.8966 65.7639 46.8966C65.7639 46.8966 68.4665 50.6234 67.2754 51.1515C65.9634 51.7369 63.3727 47.5545 63.3727 47.5545C60.1319 48.3903 58.2334 47.4639 56.9849 46.6492C56.6917 46.45 61.1174 39.6876 61.1174 39.6876Z" fill="#EB9481"/>
<path d="M68.8746 44.2562C69.2676 44.727 69.6667 45.2037 70.0143 45.7077C70.362 46.2116 70.6915 46.7307 70.9908 47.2648C71.3963 47.9556 71.7209 48.6907 71.9581 49.4556C71.4382 48.1278 70.2199 46.3022 69.8722 45.7982C69.5246 45.2943 69.2011 44.7722 68.8565 44.2683C68.8474 44.2562 68.8655 44.2442 68.8746 44.2562Z" fill="#263238"/>
<path d="M67.0274 45.4784C67.6986 46.0095 69.1043 47.983 69.6454 49.3077C69.6696 49.362 69.6454 49.359 69.6061 49.3077C69.1829 48.6529 67.4658 46.1181 67.0123 45.4874C67.0032 45.4784 67.0184 45.4693 67.0274 45.4784Z" fill="#263238"/>
<path d="M65.2531 46.2509C66.0869 47.1239 66.7457 48.1482 67.1939 49.2685C67.215 49.3228 67.1727 49.3137 67.1394 49.2685C66.5137 48.2515 66.03 47.4579 65.2198 46.278C65.2077 46.2509 65.2349 46.2237 65.2531 46.2509Z" fill="#263238"/>
<path d="M45.4609 24.9436C42.7009 21.0478 41.0503 22.4902 41.6035 26.7209C42.1235 30.677 43.5111 35.3905 43.5111 35.3905L50.4641 32.0229C50.4641 32.0229 47.2173 27.4391 45.4609 24.9436Z" fill="#F8772F"/>
<path d="M47.1388 26.4765C47.2307 26.6965 47.2967 26.9264 47.3358 27.1615C47.3783 27.3974 47.3936 27.6373 47.3812 27.8767C47.2903 27.6555 47.2253 27.4246 47.1873 27.1887C47.1422 26.9541 47.1259 26.715 47.1388 26.4765Z" fill="white"/>
<path d="M43.0183 28.8453C43.462 28.6652 43.9395 28.5828 44.418 28.6039C44.1974 28.6944 43.9672 28.7592 43.7318 28.797C43.4968 28.8418 43.2572 28.858 43.0183 28.8453Z" fill="white"/>
<path d="M43.1967 22.7859C43.0095 23.227 42.7302 23.623 42.3774 23.9477C42.5647 23.5067 42.8439 23.1106 43.1967 22.7859Z" fill="white"/>
<path d="M49.0885 30.6649C48.9968 30.8856 48.8801 31.0952 48.7409 31.2896C48.6053 31.4864 48.447 31.6667 48.2693 31.8267C48.4565 31.3857 48.7358 30.9896 49.0885 30.6649Z" fill="white"/>
<path d="M44.2518 33.0277C44.0302 32.9372 43.8201 32.8207 43.626 32.6807C43.4287 32.5454 43.2481 32.3874 43.0879 32.2099C43.5297 32.3968 43.9265 32.6756 44.2518 33.0277Z" fill="white"/>
<path d="M46.3678 26.1174C46.7397 26.6274 47.1236 27.1253 47.5045 27.6262C47.4078 27.3727 47.3231 27.1162 47.2506 26.8567H47.2687C47.3443 27.0559 47.432 27.252 47.5045 27.4602L47.6133 27.762C47.6227 27.7826 47.6308 27.8038 47.6375 27.8254C47.9398 28.2146 48.2421 28.6039 48.5203 29.0022C48.8619 29.479 49.1914 29.9618 49.5239 30.4446C49.8565 30.9275 50.192 31.528 50.5518 32.0138C50.585 32.0561 49.9472 32.3156 49.8776 32.3488C49.8081 32.382 49.7718 32.3246 49.8383 32.3035C49.9048 32.2824 50.4127 31.9716 50.4188 31.9655C50.0862 31.4767 49.7023 31.027 49.3546 30.5533C49.007 30.0795 48.6624 29.6058 48.3268 29.126C47.6466 28.1483 47.0238 27.1343 46.3467 26.1536L46.3678 26.1174Z" fill="#263238"/>
<path d="M41.7667 29.5213C41.8725 29.7265 41.9874 29.9286 42.069 30.1399L42.1839 30.4024C42.0237 29.651 41.8816 28.8936 41.7153 28.1422C42.0358 29.3493 42.3592 30.5835 42.6555 31.8086C42.9367 32.9794 43.2783 34.1623 43.4415 35.3573C43.6523 35.265 43.8708 35.1913 44.0945 35.137C43.87 35.282 43.6283 35.3986 43.375 35.4841C43.0106 34.2689 42.7079 33.0361 42.4681 31.7905C42.3925 31.4525 42.323 31.1146 42.2504 30.7766C42.1718 30.5714 42.0781 30.3752 41.9844 30.1731C41.8907 29.9709 41.806 29.7446 41.7214 29.5303C41.7395 29.5182 41.7607 29.5062 41.7667 29.5213Z" fill="#263238"/>
<path d="M43.6138 34.2257C44.5812 33.6825 48.6231 31.5944 49.527 31.2081C49.5904 31.1809 49.6237 31.2081 49.5602 31.2504C47.6417 32.3632 45.6636 33.3705 43.635 34.268C43.6108 34.274 43.5866 34.2408 43.6138 34.2257Z" fill="#263238"/>
<path d="M154.388 113.559H62.2815L75.5981 38.1637H167.705L154.388 113.559Z" fill="#F8772F"/>
<path d="M107.123 30.3541H76.9797L75.5981 38.1637H107.857L107.123 30.3541Z" fill="#F8772F"/>
<g opacity="0.1">
<path d="M154.388 113.559H62.2815L75.5981 38.1637H167.705L154.388 113.559Z" fill="black"/>
<path d="M107.123 30.3541H76.9797L75.5981 38.1637H107.857L107.123 30.3541Z" fill="black"/>
</g>
<path d="M73.7272 33.5407C73.5252 32.6772 73.5252 31.7789 73.7272 30.9154C73.9293 31.7789 73.9293 32.6772 73.7272 33.5407Z" fill="#263238"/>
<path d="M71.0483 34.3132C70.7405 33.9946 70.4753 33.6376 70.2593 33.251C70.0327 32.8725 69.8549 32.467 69.7302 32.044C70.0389 32.3607 70.3043 32.7169 70.5193 33.1032C70.7453 33.483 70.923 33.8895 71.0483 34.3132Z" fill="#263238"/>
<path d="M69.1135 36.3199C68.2641 36.0621 67.4853 35.613 66.8372 35.0073C67.261 35.1302 67.6673 35.3067 68.0464 35.5323C68.4337 35.7493 68.7922 36.0139 69.1135 36.3199Z" fill="#263238"/>
<path d="M68.4365 39.0237C67.5714 39.2249 66.6715 39.2249 65.8064 39.0237C66.6715 38.8225 67.5714 38.8225 68.4365 39.0237Z" fill="#263238"/>
<path d="M69.2223 41.6973C68.9018 42.003 68.5443 42.2675 68.1582 42.4849C67.7791 42.7105 67.3728 42.887 66.949 43.01C67.2682 42.7027 67.6258 42.438 68.0131 42.2224C68.3916 41.9956 68.7981 41.8191 69.2223 41.6973Z" fill="#263238"/>
<path d="M71.2296 43.6255C70.9722 44.4748 70.5222 45.2533 69.9146 45.9008C70.0376 45.4773 70.2155 45.0715 70.4436 44.6938C70.6591 44.3058 70.9232 43.9469 71.2296 43.6255Z" fill="#263238"/>
<path d="M73.9387 44.2924C74.0444 44.7219 74.0953 45.163 74.0903 45.6051C74.0968 46.0473 74.0459 46.4886 73.9387 46.9178C73.8301 46.4888 73.7792 46.0474 73.7872 45.6051C73.7822 45.163 73.8331 44.7219 73.9387 44.2924Z" fill="#263238"/>
<path d="M76.6167 43.535C76.9245 43.8536 77.1897 44.2107 77.4057 44.5972C77.6329 44.975 77.8097 45.3808 77.9317 45.8043C77.3241 45.1568 76.8741 44.3782 76.6167 43.529V43.535Z" fill="#263238"/>
<path d="M78.5486 41.5132C78.9728 41.6351 79.3793 41.8116 79.7578 42.0383C80.1451 42.2539 80.5027 42.5186 80.8219 42.8259C80.3977 42.7041 79.9912 42.5276 79.6127 42.3008C79.2254 42.0852 78.8678 41.8205 78.5486 41.5132Z" fill="#263238"/>
<path d="M79.2166 38.8094C80.0827 38.6083 80.9835 38.6083 81.8496 38.8094C80.9835 39.0106 80.0827 39.0106 79.2166 38.8094Z" fill="#263238"/>
<path d="M78.4428 36.1359C78.7628 35.8305 79.1204 35.5668 79.5069 35.3513C79.8847 35.1224 80.2914 34.9448 80.7162 34.8232C80.0675 35.4298 79.2875 35.879 78.4368 36.1359H78.4428Z" fill="#263238"/>
<path d="M76.4324 34.2076C76.5568 33.785 76.7335 33.3795 76.9584 33.0005C77.1744 32.614 77.4396 32.257 77.7474 31.9384C77.6254 32.3618 77.4485 32.7676 77.2214 33.1454C77.0054 33.532 76.7402 33.889 76.4324 34.2076Z" fill="#263238"/>
<path d="M154.252 113.559H61.9489L48.8408 40.9007H141.147L154.252 113.559Z" fill="#F8772F"/>
<path d="M80.828 85.3168C82.9467 85.3168 84.6643 83.6024 84.6643 81.4875C84.6643 79.3726 82.9467 77.6581 80.828 77.6581C78.7093 77.6581 76.9917 79.3726 76.9917 81.4875C76.9917 83.6024 78.7093 85.3168 80.828 85.3168Z" fill="#263238"/>
<path d="M111.155 85.3168C113.274 85.3168 114.992 83.6024 114.992 81.4875C114.992 79.3726 113.274 77.6581 111.155 77.6581C109.037 77.6581 107.319 79.3726 107.319 81.4875C107.319 83.6024 109.037 85.3168 111.155 85.3168Z" fill="#263238"/>
<path d="M101.503 85.9294L101.291 85.5281C101.273 85.4918 99.2899 81.8345 95.3025 81.8345C91.6748 81.8345 90.7679 85.2776 90.7437 85.4255L90.6348 85.863L89.7551 85.6518L89.8609 85.2112C89.8609 85.169 90.9432 80.9292 95.3025 80.9292C99.8371 80.9292 102.005 84.9366 102.095 85.1086L102.307 85.5069L101.503 85.9294Z" fill="#263238"/>
<path d="M148.158 81.1947L148.094 80.893C148.291 80.8507 148.484 80.8055 148.678 80.7542L148.753 81.0559C148.548 81.1072 148.357 81.1525 148.158 81.1947Z" fill="#263238"/>
<path d="M149.923 80.7089L149.826 80.4253C150.204 80.2955 150.582 80.1537 150.948 79.9998L151.066 80.2774C150.694 80.4343 150.31 80.5792 149.923 80.7089ZM152.175 79.7463L152.039 79.4808C152.393 79.2967 152.747 79.0975 153.082 78.8772L153.239 79.1337C152.895 79.3721 152.535 79.5743 152.175 79.7463ZM154.255 78.4698L154.077 78.2254C154.403 77.987 154.718 77.7366 155.014 77.4801L155.214 77.7064C154.896 77.981 154.594 78.2375 154.252 78.4819L154.255 78.4698ZM156.099 76.8645L155.879 76.6563C156.157 76.3545 156.42 76.0528 156.662 75.751L156.9 75.9351C156.65 76.267 156.38 76.5778 156.105 76.8766L156.099 76.8645ZM157.596 74.9332L157.339 74.7733C157.548 74.4362 157.734 74.0853 157.895 73.7232L158.173 73.8469C158.002 74.2245 157.808 74.5913 157.593 74.9453L157.596 74.9332ZM158.596 72.6942L158.294 72.6097C158.405 72.2311 158.486 71.8447 158.539 71.4539L158.841 71.4931C158.791 71.9035 158.708 72.3091 158.593 72.7062L158.596 72.6942ZM158.932 70.2801H158.63V70.1926C158.63 69.8274 158.608 69.4563 158.572 69.0911L158.874 69.061C158.914 69.4369 158.934 69.8146 158.935 70.1926L158.932 70.2801ZM158.388 67.9173C158.306 67.5282 158.206 67.1435 158.085 66.7646L158.388 66.674C158.512 67.0663 158.618 67.4646 158.69 67.8539L158.388 67.9173ZM157.671 65.645C157.526 65.2889 157.369 64.9238 157.176 64.5557L157.448 64.4199C157.632 64.7941 157.801 65.1682 157.949 65.5304L157.671 65.645ZM156.613 63.4935C156.426 63.1646 156.22 62.8175 156.009 62.4615L156.266 62.3015C156.486 62.6606 156.695 63.0107 156.87 63.3456L156.613 63.4935ZM155.35 61.4445C155.129 61.1126 154.905 60.7776 154.675 60.4427L154.926 60.2737C155.156 60.6086 155.38 60.9436 155.601 61.2816L155.35 61.4445ZM153.989 59.4469C153.762 59.1149 153.533 58.78 153.309 58.448L153.56 58.279C153.784 58.611 154.01 58.9459 154.237 59.2749L153.989 59.4469ZM152.638 57.4371C152.417 57.0992 152.203 56.7552 151.991 56.4111L152.248 56.2542C152.46 56.5982 152.674 56.9362 152.892 57.2742L152.638 57.4371ZM151.377 55.364C151.172 54.9989 150.981 54.6368 150.809 54.2898L151.081 54.154C151.25 54.498 151.441 54.8541 151.64 55.2162L151.377 55.364ZM150.304 53.1914C150.144 52.8142 150.002 52.4309 149.869 52.0567L150.171 51.9602C150.298 52.3253 150.44 52.7025 150.597 53.0737L150.304 53.1914ZM149.518 50.8889C149.418 50.4966 149.331 50.0953 149.264 49.6819L149.566 49.6336C149.633 50.0199 149.715 50.4122 149.814 50.7984L149.518 50.8889ZM149.113 48.4748C149.083 48.1037 149.068 47.7295 149.068 47.3553V47.2557H149.37V47.3523C149.37 47.7174 149.37 48.0856 149.415 48.4477L149.113 48.4748ZM149.415 46.0608L149.113 46.0306C149.113 45.9491 149.128 45.8646 149.137 45.7771C149.173 45.4542 149.219 45.1313 149.273 44.8235L149.576 44.8748C149.524 45.1766 149.479 45.4934 149.443 45.8103C149.455 45.9038 149.455 45.9853 149.43 46.0698L149.415 46.0608ZM149.835 43.7131L149.533 43.6316C149.645 43.2333 149.775 42.844 149.92 42.4728L150.201 42.5815C150.064 42.9551 149.947 43.3359 149.851 43.7221L149.835 43.7131ZM164.899 41.9538C164.73 41.9538 164.555 41.9297 164.383 41.9055C164.147 41.8723 163.911 41.8331 163.678 41.7878L163.739 41.4861C163.962 41.5283 164.195 41.5675 164.425 41.6007C164.588 41.6219 164.754 41.6369 164.915 41.646L164.899 41.9538ZM166.142 41.8602L166.078 41.5585C166.458 41.4803 166.822 41.3396 167.155 41.1421L167.312 41.3986C166.956 41.6185 166.566 41.7776 166.157 41.8693L166.142 41.8602ZM150.706 41.5012L150.437 41.3593C150.63 40.9994 150.843 40.6508 151.075 40.3152L151.323 40.4872C151.102 40.8159 150.901 41.1575 150.721 41.5102L150.706 41.5012ZM162.496 41.483C162.106 41.3595 161.722 41.2154 161.347 41.0515L161.471 40.7739C161.835 40.9351 162.207 41.0751 162.587 41.1934L162.496 41.483ZM168.24 40.5416L167.989 40.3726C168.204 40.0609 168.332 39.6971 168.358 39.3194L168.66 39.3406C168.635 39.7734 168.492 40.1914 168.249 40.5506L168.24 40.5416ZM160.259 40.4963C159.905 40.291 159.563 40.0664 159.234 39.8234L159.413 39.582C159.733 39.8176 160.066 40.0352 160.41 40.2338L160.259 40.4963ZM152.067 39.5548L151.843 39.3526C152.117 39.0487 152.408 38.7615 152.716 38.4926L152.916 38.7189C152.619 38.9838 152.339 39.2659 152.076 39.5639L152.067 39.5548ZM158.291 39.0448C157.99 38.768 157.704 38.4748 157.436 38.1667L157.662 37.9675C157.924 38.2668 158.201 38.5519 158.494 38.8215L158.291 39.0448ZM168.131 38.2271C167.958 37.8822 167.719 37.5746 167.427 37.3218L167.626 37.0954C167.947 37.3728 168.211 37.71 168.403 38.0882L168.131 38.2271ZM153.856 37.9887L153.684 37.7412C154.022 37.5107 154.372 37.2982 154.733 37.1045L154.875 37.3701C154.528 37.5616 154.191 37.7711 153.865 37.9977L153.856 37.9887ZM156.68 37.2041C156.565 37.0411 156.453 36.8752 156.347 36.7032L155.954 36.8571L155.839 36.5794L156.187 36.4406C156.133 36.3501 156.078 36.2596 156.027 36.169L156.29 36.0212C156.35 36.1268 156.411 36.2324 156.474 36.3229C156.643 36.2626 156.816 36.2053 156.991 36.1509L157.079 36.4527C156.931 36.498 156.776 36.5462 156.637 36.5975C156.731 36.7454 156.828 36.8993 156.94 37.0291L156.68 37.2041ZM166.453 36.6851C166.161 36.5395 165.858 36.4165 165.546 36.3169L165.347 36.2535L165.435 35.9518L165.64 36.0182C165.964 36.1212 166.279 36.2493 166.583 36.4014L166.453 36.6851ZM158.237 36.1449L158.173 35.8431C158.563 35.7556 158.968 35.6832 159.382 35.6259L159.428 35.9276C159.029 35.991 158.633 36.0664 158.246 36.154L158.237 36.1449ZM164.192 35.982C163.814 35.9156 163.415 35.8643 163.007 35.8281L163.031 35.5263C163.451 35.5625 163.86 35.6138 164.24 35.6832L164.192 35.982ZM160.61 35.8069L160.589 35.5052C160.948 35.484 161.308 35.472 161.665 35.472H161.813V35.7737H161.668C161.326 35.7828 160.969 35.7918 160.619 35.816L160.61 35.8069ZM155.501 35.0857C155.337 34.7176 155.198 34.3343 155.062 33.9451L155.365 33.8515C155.492 34.2317 155.634 34.6059 155.791 34.965L155.501 35.0857ZM154.736 32.7682C154.645 32.3789 154.57 31.9746 154.512 31.5612L154.814 31.5189C154.872 31.9172 154.944 32.3125 155.032 32.6958L154.736 32.7682ZM154.397 30.3541C154.382 30.0825 154.373 29.8049 154.373 29.5273C154.373 29.3975 154.373 29.2648 154.373 29.135H154.675C154.675 29.2648 154.675 29.3915 154.675 29.5213C154.675 29.7928 154.675 30.0674 154.697 30.33L154.397 30.3541ZM154.757 27.94L154.455 27.9099C154.497 27.5115 154.555 27.1042 154.624 26.7028L154.926 26.7541C154.845 27.1555 154.787 27.5417 154.748 27.9461L154.757 27.94ZM155.171 25.5833L154.869 25.5109C154.966 25.1216 155.078 24.7293 155.201 24.337L155.504 24.4306C155.368 24.8259 155.256 25.2091 155.162 25.5893L155.171 25.5833ZM155.897 23.299L155.616 23.1903C155.764 22.8131 155.918 22.4359 156.102 22.0708L156.374 22.2036C156.193 22.5657 156.033 22.9338 155.888 23.3171L155.897 23.299ZM156.937 21.1474L156.674 20.9935C156.879 20.6465 157.1 20.2995 157.33 19.9675L157.578 20.1395C157.342 20.4715 157.127 20.8094 156.928 21.1534L156.937 21.1474ZM158.3 19.1829L158.064 18.9928C158.318 18.6911 158.59 18.3712 158.871 18.0875L159.089 18.2958C158.805 18.5794 158.539 18.8812 158.291 19.189L158.3 19.1829ZM159.945 17.4448L159.742 17.2215C160.044 16.9529 160.347 16.6874 160.67 16.4309L160.858 16.6693C160.534 16.9258 160.226 17.1883 159.936 17.4508L159.945 17.4448ZM161.822 15.9541L161.65 15.7036C161.979 15.4773 162.324 15.254 162.674 15.0428L162.829 15.2993C162.478 15.5135 162.151 15.7338 161.813 15.9601L161.822 15.9541ZM163.875 14.7078L163.733 14.4423C164.089 14.2522 164.458 14.0711 164.827 13.9021L164.954 14.1767C164.57 14.3487 164.216 14.5298 163.866 14.7139L163.875 14.7078ZM166.06 13.706L165.948 13.4223C166.329 13.2745 166.713 13.1206 167.094 13.0089L167.191 13.3107C166.807 13.4253 166.426 13.5642 166.051 13.712L166.06 13.706Z" fill="#263238"/>
<path d="M168.391 12.9425L168.316 12.6408C168.691 12.5442 168.92 12.502 168.92 12.502L168.975 12.8037C168.975 12.8037 168.757 12.849 168.391 12.9425Z" fill="#263238"/>
<path d="M173.736 10.9931C172.965 8.60922 167.802 9.46622 168.808 12.5834C169.815 15.7006 174.507 13.3801 173.736 10.9931Z" fill="#263238"/>
<path d="M166 10.0396C166.039 8.99246 167.496 8.18676 169.558 8.55792C171.62 8.92909 173.558 10.3172 173.558 10.3172C173.558 10.3172 171.523 11.5484 169.44 11.7747C167.357 12.001 165.961 11.0837 166 10.0396Z" fill="#EBEBEB"/>
<path d="M173.558 10.3111C172.487 10.3111 171.42 10.281 170.353 10.2478C169.286 10.2146 168.216 10.1603 167.149 10.0758C168.219 10.0758 169.289 10.1029 170.356 10.1361C171.423 10.1693 172.493 10.2236 173.558 10.3111Z" fill="#263238"/>
<path d="M168.071 9.10715C168.678 9.39727 169.251 9.75458 169.779 10.1724C169.475 10.03 169.18 9.8687 168.896 9.68954C168.61 9.51162 168.334 9.31716 168.071 9.10715Z" fill="#263238"/>
<path d="M170.873 10.2116C170.326 10.654 169.733 11.0364 169.104 11.3522C169.654 10.9093 170.25 10.5268 170.882 10.2116H170.873Z" fill="#263238"/>
<path d="M171.185 9.62314C171.49 9.76935 171.757 9.9842 171.965 10.2508C171.812 10.1789 171.669 10.0887 171.538 9.98223C171.407 9.87638 171.288 9.7559 171.185 9.62314Z" fill="#263238"/>
<path d="M167.965 16.2408C168.609 17.0676 170.262 16.8684 171.716 15.3656C173.171 13.8629 173.941 11.6027 173.941 11.6027C173.941 11.6027 171.559 11.7837 169.742 12.8097C167.926 13.8357 167.318 15.4109 167.965 16.2408Z" fill="#EBEBEB"/>
<path d="M173.941 11.6027C173.071 12.2062 172.224 12.8761 171.375 13.5249C170.525 14.1737 169.694 14.8436 168.881 15.5346C169.752 14.9311 170.598 14.2642 171.444 13.6154C172.291 12.9666 173.116 12.2967 173.941 11.6027Z" fill="#263238"/>
<path d="M170.187 15.773C170.348 15.4799 170.493 15.1776 170.619 14.8677C170.748 14.557 170.857 14.2385 170.946 13.9142C170.783 14.2071 170.639 14.5094 170.513 14.8195C170.386 15.1307 170.277 15.4491 170.187 15.773Z" fill="#263238"/>
<path d="M171.825 13.2504C171.118 13.2125 170.409 13.2501 169.709 13.3625C170.062 13.3837 170.415 13.3837 170.767 13.3625C171.122 13.3452 171.475 13.3077 171.825 13.2504Z" fill="#263238"/>
<path d="M172.409 13.5491C172.49 13.4 172.553 13.242 172.597 13.0783C172.642 12.9158 172.668 12.7488 172.676 12.5804C172.515 12.8791 172.423 13.2103 172.409 13.5491Z" fill="#263238"/>
<path d="M173.736 10.9931C173.565 11.0485 173.382 11.052 173.209 11.0033C173.036 10.9545 172.882 10.8557 172.766 10.7193C172.649 10.583 172.576 10.4152 172.555 10.2372C172.534 10.0592 172.567 9.87909 172.648 9.71959C172.73 9.56009 172.858 9.42842 173.014 9.34123C173.171 9.25405 173.35 9.21527 173.529 9.22983C173.708 9.24438 173.879 9.31161 174.019 9.42299C174.16 9.53437 174.264 9.6849 174.319 9.85551C174.393 10.0836 174.372 10.3314 174.263 10.5446C174.154 10.7579 173.964 10.9192 173.736 10.9931Z" fill="#455A64"/>
<path d="M174.292 12.7162C174.121 12.7713 173.938 12.7747 173.766 12.7259C173.593 12.6771 173.439 12.5783 173.323 12.4421C173.206 12.3059 173.133 12.1382 173.112 11.9604C173.091 11.7826 173.124 11.6026 173.205 11.4432C173.287 11.2838 173.414 11.152 173.57 11.0647C173.727 10.9773 173.906 10.9383 174.085 10.9524C174.263 10.9666 174.434 11.0333 174.575 11.1442C174.716 11.2552 174.82 11.4052 174.876 11.5755C174.912 11.6887 174.926 11.8079 174.917 11.9265C174.908 12.0451 174.875 12.1606 174.821 12.2665C174.766 12.3725 174.692 12.4667 174.601 12.5438C174.511 12.621 174.405 12.6796 174.292 12.7162Z" fill="#455A64"/>
<path d="M75.1808 11.9467C75.036 13.3328 74.5081 14.6513 73.6562 15.7553C72.8043 16.8593 71.6618 17.7053 70.3562 18.1989C69.0506 18.6925 67.6333 18.8142 66.2624 18.5505C64.8916 18.2868 63.6211 17.648 62.5928 16.7055L58.823 17.2577L60.7094 14.0047C60.278 12.9463 60.094 11.8036 60.1712 10.6635C60.2485 9.5234 60.585 8.41588 61.1553 7.42505C61.7255 6.43421 62.5145 5.58614 63.4623 4.94524C64.41 4.30434 65.4917 3.88747 66.625 3.7263C67.7583 3.56513 68.9135 3.66389 70.0029 4.01509C71.0922 4.36629 72.0871 4.96068 72.9119 5.75312C73.7367 6.54556 74.3697 7.5152 74.7628 8.5884C75.156 9.6616 75.2989 10.8101 75.1808 11.9467Z" fill="white"/>
<path d="M75.1808 11.9467C75.039 13.332 74.5158 14.6511 73.6692 15.758C73.2556 16.3177 72.7568 16.8095 72.1909 17.2155C71.6374 17.6366 71.0267 17.977 70.3771 18.2264C69.7271 18.4819 69.0442 18.6444 68.3486 18.7092C68.0009 18.7403 67.6514 18.7474 67.3026 18.7303C66.9527 18.7213 66.6039 18.685 66.2597 18.6217C64.8703 18.3665 63.5796 17.7302 62.5322 16.7839L62.6199 16.8111L58.8562 17.3875L58.5811 17.4297L58.7201 17.1883L60.5944 13.9293V14.059C60.1521 12.981 59.9641 11.816 60.0448 10.6538C60.1256 9.49173 60.4729 8.3637 61.06 7.35694C61.6464 6.35334 62.4524 5.49506 63.418 4.84629C64.3819 4.20613 65.4786 3.79213 66.6257 3.63535C67.7729 3.47856 68.9406 3.58306 70.0415 3.94101C71.1308 4.3109 72.1234 4.9192 72.9467 5.72139C73.7682 6.52158 74.3964 7.49805 74.7835 8.5767C75.1706 9.65535 75.3064 10.8078 75.1808 11.9467ZM75.1808 11.9467C75.3029 10.8134 75.1625 9.66731 74.7704 8.5968C74.3784 7.52629 73.7451 6.56004 72.9194 5.77266C72.0938 4.98527 71.098 4.39781 70.0087 4.05563C68.9195 3.71345 67.7661 3.62571 66.6375 3.79918C65.5203 3.96425 64.456 4.38342 63.5268 5.02433C62.6056 5.67027 61.8361 6.5084 61.2716 7.48066C60.7158 8.45507 60.3882 9.54243 60.3133 10.6612C60.2397 11.7876 60.4215 12.916 60.8453 13.9625L60.8725 14.0289L60.8363 14.0922L58.9378 17.3392L58.8048 17.14L62.5776 16.6119H62.629L62.6652 16.6451C63.6737 17.5821 64.9235 18.2205 66.2748 18.4889C66.6115 18.5574 66.9532 18.5987 67.2966 18.6126C67.6398 18.6367 67.9843 18.6367 68.3274 18.6126C69.0157 18.5573 69.6931 18.408 70.3408 18.169C70.9899 17.9331 71.601 17.6037 72.1547 17.1913C72.7182 16.7887 73.2176 16.3034 73.636 15.7519C74.4934 14.6505 75.0282 13.3333 75.1808 11.9467Z" fill="#263238"/>
<path d="M64.0044 14.6716C63.9986 14.5717 64.0134 14.4717 64.048 14.3777C64.0825 14.2838 64.136 14.1979 64.2052 14.1255C64.2744 14.0531 64.3577 13.9956 64.45 13.9566C64.5424 13.9177 64.6418 13.8981 64.742 13.8991C64.9473 13.8991 65.1441 13.9805 65.2893 14.1254C65.4344 14.2702 65.5159 14.4667 65.5159 14.6716C65.5159 14.8765 65.4344 15.073 65.2893 15.2179C65.1441 15.3627 64.9473 15.4441 64.742 15.4441C64.6418 15.4451 64.5424 15.4255 64.45 15.3866C64.3577 15.3476 64.2744 15.2902 64.2052 15.2177C64.136 15.1453 64.0825 15.0594 64.048 14.9655C64.0134 14.8715 63.9986 14.7715 64.0044 14.6716ZM64.3067 12.8882L64.1314 6.90128H65.3406L65.1653 12.8882H64.3067Z" fill="#F8772F"/>
<path d="M66.8794 14.6716C66.8736 14.572 66.8883 14.4722 66.9227 14.3785C66.9571 14.2847 67.0103 14.199 67.0792 14.1266C67.148 14.0542 67.231 13.9967 67.323 13.9575C67.415 13.9184 67.514 13.8985 67.614 13.8991C67.8193 13.8991 68.0161 13.9805 68.1612 14.1254C68.3064 14.2702 68.3879 14.4667 68.3879 14.6716C68.3879 14.8765 68.3064 15.073 68.1612 15.2179C68.0161 15.3627 67.8193 15.4441 67.614 15.4441C67.514 15.4447 67.415 15.4248 67.323 15.3857C67.231 15.3466 67.148 15.289 67.0792 15.2166C67.0103 15.1442 66.9571 15.0585 66.9227 14.9648C66.8883 14.871 66.8736 14.7713 66.8794 14.6716ZM67.1817 12.8882L67.0154 6.90128H68.2247L68.0493 12.8882H67.1817Z" fill="#F8772F"/>
<path d="M69.7512 14.6716C69.7454 14.5717 69.7603 14.4717 69.7948 14.3777C69.8293 14.2838 69.8828 14.1979 69.952 14.1255C70.0212 14.0531 70.1045 13.9956 70.1969 13.9566C70.2892 13.9177 70.3886 13.8981 70.4889 13.8991C70.6941 13.8991 70.891 13.9805 71.0361 14.1254C71.1812 14.2702 71.2628 14.4667 71.2628 14.6716C71.2628 14.8765 71.1812 15.073 71.0361 15.2179C70.891 15.3627 70.6941 15.4441 70.4889 15.4441C70.3886 15.4451 70.2892 15.4255 70.1969 15.3866C70.1045 15.3476 70.0212 15.2902 69.952 15.2177C69.8828 15.1453 69.8293 15.0594 69.7948 14.9655C69.7603 14.8715 69.7454 14.7715 69.7512 14.6716ZM70.0535 12.8882L69.8782 6.90128H71.0874L70.9151 12.8882H70.0535Z" fill="#F8772F"/>
</g>
</svg>
